<?xml version="1.0" encoding="utf-8" standalone="no"?>
<!DOCTYPE svg PUBLIC "-//W3C//DTD SVG 1.1//EN"
  "http://www.w3.org/Graphics/SVG/1.1/DTD/svg11.dtd">
<svg xmlns:xlink="http://www.w3.org/1999/xlink" width="460.90409pt" height="568.515312pt" viewBox="0 0 460.90409 568.515312" xmlns="http://www.w3.org/2000/svg" version="1.1">
 <metadata>
  <rdf:RDF xmlns:dc="http://purl.org/dc/elements/1.1/" xmlns:cc="http://creativecommons.org/ns#" xmlns:rdf="http://www.w3.org/1999/02/22-rdf-syntax-ns#">
   <cc:Work>
    <dc:type rdf:resource="http://purl.org/dc/dcmitype/StillImage"/>
    <dc:date>2026-02-04T11:53:14.737795</dc:date>
    <dc:format>image/svg+xml</dc:format>
    <dc:creator>
     <cc:Agent>
      <dc:title>Matplotlib v3.10.0, https://matplotlib.org/</dc:title>
     </cc:Agent>
    </dc:creator>
   </cc:Work>
  </rdf:RDF>
 </metadata>
 <defs>
  <style type="text/css">*{stroke-linejoin: round; stroke-linecap: butt}</style>
 </defs>
 <g id="figure_1">
  <g id="patch_1">
   <path d="M 0 568.515312 
L 460.90409 568.515312 
L 460.90409 0 
L 0 0 
z
" style="fill: #ffffff"/>
  </g>
  <g id="axes_1">
   <g id="patch_2">
    <path d="M 63.3625 169.195663 
L 449.608958 169.195663 
L 449.608958 7.2 
L 63.3625 7.2 
z
" style="fill: #ffffff"/>
   </g>
   <g id="matplotlib.axis_1">
    <g id="xtick_1">
     <g id="line2d_1">
      <path d="M 80.919157 169.195663 
L 80.919157 7.2 
" clip-path="url(#p2724949995)" style="fill: none; stroke: #b0b0b0; stroke-opacity: 0.3; stroke-width: 0.8; stroke-linecap: square"/>
     </g>
     <g id="line2d_2">
      <defs>
       <path id="m61a1c029cc" d="M 0 0 
L 0 3.5 
" style="stroke: #000000; stroke-width: 0.8"/>
      </defs>
      <g>
       <use xlink:href="#m61a1c029cc" x="80.919157" y="169.195663" style="stroke: #000000; stroke-width: 0.8"/>
      </g>
     </g>
    </g>
    <g id="xtick_2">
     <g id="line2d_3">
      <path d="M 141.459354 169.195663 
L 141.459354 7.2 
" clip-path="url(#p2724949995)" style="fill: none; stroke: #b0b0b0; stroke-opacity: 0.3; stroke-width: 0.8; stroke-linecap: square"/>
     </g>
     <g id="line2d_4">
      <g>
       <use xlink:href="#m61a1c029cc" x="141.459354" y="169.195663" style="stroke: #000000; stroke-width: 0.8"/>
      </g>
     </g>
    </g>
    <g id="xtick_3">
     <g id="line2d_5">
      <path d="M 201.999551 169.195663 
L 201.999551 7.2 
" clip-path="url(#p2724949995)" style="fill: none; stroke: #b0b0b0; stroke-opacity: 0.3; stroke-width: 0.8; stroke-linecap: square"/>
     </g>
     <g id="line2d_6">
      <g>
       <use xlink:href="#m61a1c029cc" x="201.999551" y="169.195663" style="stroke: #000000; stroke-width: 0.8"/>
      </g>
     </g>
    </g>
    <g id="xtick_4">
     <g id="line2d_7">
      <path d="M 262.539749 169.195663 
L 262.539749 7.2 
" clip-path="url(#p2724949995)" style="fill: none; stroke: #b0b0b0; stroke-opacity: 0.3; stroke-width: 0.8; stroke-linecap: square"/>
     </g>
     <g id="line2d_8">
      <g>
       <use xlink:href="#m61a1c029cc" x="262.539749" y="169.195663" style="stroke: #000000; stroke-width: 0.8"/>
      </g>
     </g>
    </g>
    <g id="xtick_5">
     <g id="line2d_9">
      <path d="M 323.079946 169.195663 
L 323.079946 7.2 
" clip-path="url(#p2724949995)" style="fill: none; stroke: #b0b0b0; stroke-opacity: 0.3; stroke-width: 0.8; stroke-linecap: square"/>
     </g>
     <g id="line2d_10">
      <g>
       <use xlink:href="#m61a1c029cc" x="323.079946" y="169.195663" style="stroke: #000000; stroke-width: 0.8"/>
      </g>
     </g>
    </g>
    <g id="xtick_6">
     <g id="line2d_11">
      <path d="M 383.620143 169.195663 
L 383.620143 7.2 
" clip-path="url(#p2724949995)" style="fill: none; stroke: #b0b0b0; stroke-opacity: 0.3; stroke-width: 0.8; stroke-linecap: square"/>
     </g>
     <g id="line2d_12">
      <g>
       <use xlink:href="#m61a1c029cc" x="383.620143" y="169.195663" style="stroke: #000000; stroke-width: 0.8"/>
      </g>
     </g>
    </g>
    <g id="xtick_7">
     <g id="line2d_13">
      <path d="M 444.16034 169.195663 
L 444.16034 7.2 
" clip-path="url(#p2724949995)" style="fill: none; stroke: #b0b0b0; stroke-opacity: 0.3; stroke-width: 0.8; stroke-linecap: square"/>
     </g>
     <g id="line2d_14">
      <g>
       <use xlink:href="#m61a1c029cc" x="444.16034" y="169.195663" style="stroke: #000000; stroke-width: 0.8"/>
      </g>
     </g>
    </g>
   </g>
   <g id="matplotlib.axis_2">
    <g id="ytick_1">
     <g id="line2d_15">
      <path d="M 63.3625 167.773261 
L 449.608958 167.773261 
" clip-path="url(#p2724949995)" style="fill: none; stroke: #b0b0b0; stroke-opacity: 0.3; stroke-width: 0.8; stroke-linecap: square"/>
     </g>
     <g id="line2d_16">
      <defs>
       <path id="m45d508ba7a" d="M 0 0 
L -3.5 0 
" style="stroke: #000000; stroke-width: 0.8"/>
      </defs>
      <g>
       <use xlink:href="#m45d508ba7a" x="63.3625" y="167.773261" style="stroke: #000000; stroke-width: 0.8"/>
      </g>
     </g>
     <g id="text_1">
      <!-- 0.000 -->
      <g transform="translate(27.734375 171.57248) scale(0.1 -0.1)">
       <defs>
        <path id="DejaVuSans-30" d="M 2034 4250 
Q 1547 4250 1301 3770 
Q 1056 3291 1056 2328 
Q 1056 1369 1301 889 
Q 1547 409 2034 409 
Q 2525 409 2770 889 
Q 3016 1369 3016 2328 
Q 3016 3291 2770 3770 
Q 2525 4250 2034 4250 
z
M 2034 4750 
Q 2819 4750 3233 4129 
Q 3647 3509 3647 2328 
Q 3647 1150 3233 529 
Q 2819 -91 2034 -91 
Q 1250 -91 836 529 
Q 422 1150 422 2328 
Q 422 3509 836 4129 
Q 1250 4750 2034 4750 
z
" transform="scale(0.015625)"/>
        <path id="DejaVuSans-2e" d="M 684 794 
L 1344 794 
L 1344 0 
L 684 0 
L 684 794 
z
" transform="scale(0.015625)"/>
       </defs>
       <use xlink:href="#DejaVuSans-30"/>
       <use xlink:href="#DejaVuSans-2e" transform="translate(63.623047 0)"/>
       <use xlink:href="#DejaVuSans-30" transform="translate(95.410156 0)"/>
       <use xlink:href="#DejaVuSans-30" transform="translate(159.033203 0)"/>
       <use xlink:href="#DejaVuSans-30" transform="translate(222.65625 0)"/>
      </g>
     </g>
    </g>
    <g id="ytick_2">
     <g id="line2d_17">
      <path d="M 63.3625 146.985365 
L 449.608958 146.985365 
" clip-path="url(#p2724949995)" style="fill: none; stroke: #b0b0b0; stroke-opacity: 0.3; stroke-width: 0.8; stroke-linecap: square"/>
     </g>
     <g id="line2d_18">
      <g>
       <use xlink:href="#m45d508ba7a" x="63.3625" y="146.985365" style="stroke: #000000; stroke-width: 0.8"/>
      </g>
     </g>
     <g id="text_2">
      <!-- 0.005 -->
      <g transform="translate(27.734375 150.784584) scale(0.1 -0.1)">
       <defs>
        <path id="DejaVuSans-35" d="M 691 4666 
L 3169 4666 
L 3169 4134 
L 1269 4134 
L 1269 2991 
Q 1406 3038 1543 3061 
Q 1681 3084 1819 3084 
Q 2600 3084 3056 2656 
Q 3513 2228 3513 1497 
Q 3513 744 3044 326 
Q 2575 -91 1722 -91 
Q 1428 -91 1123 -41 
Q 819 9 494 109 
L 494 744 
Q 775 591 1075 516 
Q 1375 441 1709 441 
Q 2250 441 2565 725 
Q 2881 1009 2881 1497 
Q 2881 1984 2565 2268 
Q 2250 2553 1709 2553 
Q 1456 2553 1204 2497 
Q 953 2441 691 2322 
L 691 4666 
z
" transform="scale(0.015625)"/>
       </defs>
       <use xlink:href="#DejaVuSans-30"/>
       <use xlink:href="#DejaVuSans-2e" transform="translate(63.623047 0)"/>
       <use xlink:href="#DejaVuSans-30" transform="translate(95.410156 0)"/>
       <use xlink:href="#DejaVuSans-30" transform="translate(159.033203 0)"/>
       <use xlink:href="#DejaVuSans-35" transform="translate(222.65625 0)"/>
      </g>
     </g>
    </g>
    <g id="ytick_3">
     <g id="line2d_19">
      <path d="M 63.3625 126.197469 
L 449.608958 126.197469 
" clip-path="url(#p2724949995)" style="fill: none; stroke: #b0b0b0; stroke-opacity: 0.3; stroke-width: 0.8; stroke-linecap: square"/>
     </g>
     <g id="line2d_20">
      <g>
       <use xlink:href="#m45d508ba7a" x="63.3625" y="126.197469" style="stroke: #000000; stroke-width: 0.8"/>
      </g>
     </g>
     <g id="text_3">
      <!-- 0.010 -->
      <g transform="translate(27.734375 129.996687) scale(0.1 -0.1)">
       <defs>
        <path id="DejaVuSans-31" d="M 794 531 
L 1825 531 
L 1825 4091 
L 703 3866 
L 703 4441 
L 1819 4666 
L 2450 4666 
L 2450 531 
L 3481 531 
L 3481 0 
L 794 0 
L 794 531 
z
" transform="scale(0.015625)"/>
       </defs>
       <use xlink:href="#DejaVuSans-30"/>
       <use xlink:href="#DejaVuSans-2e" transform="translate(63.623047 0)"/>
       <use xlink:href="#DejaVuSans-30" transform="translate(95.410156 0)"/>
       <use xlink:href="#DejaVuSans-31" transform="translate(159.033203 0)"/>
       <use xlink:href="#DejaVuSans-30" transform="translate(222.65625 0)"/>
      </g>
     </g>
    </g>
    <g id="ytick_4">
     <g id="line2d_21">
      <path d="M 63.3625 105.409573 
L 449.608958 105.409573 
" clip-path="url(#p2724949995)" style="fill: none; stroke: #b0b0b0; stroke-opacity: 0.3; stroke-width: 0.8; stroke-linecap: square"/>
     </g>
     <g id="line2d_22">
      <g>
       <use xlink:href="#m45d508ba7a" x="63.3625" y="105.409573" style="stroke: #000000; stroke-width: 0.8"/>
      </g>
     </g>
     <g id="text_4">
      <!-- 0.015 -->
      <g transform="translate(27.734375 109.208791) scale(0.1 -0.1)">
       <use xlink:href="#DejaVuSans-30"/>
       <use xlink:href="#DejaVuSans-2e" transform="translate(63.623047 0)"/>
       <use xlink:href="#DejaVuSans-30" transform="translate(95.410156 0)"/>
       <use xlink:href="#DejaVuSans-31" transform="translate(159.033203 0)"/>
       <use xlink:href="#DejaVuSans-35" transform="translate(222.65625 0)"/>
      </g>
     </g>
    </g>
    <g id="ytick_5">
     <g id="line2d_23">
      <path d="M 63.3625 84.621676 
L 449.608958 84.621676 
" clip-path="url(#p2724949995)" style="fill: none; stroke: #b0b0b0; stroke-opacity: 0.3; stroke-width: 0.8; stroke-linecap: square"/>
     </g>
     <g id="line2d_24">
      <g>
       <use xlink:href="#m45d508ba7a" x="63.3625" y="84.621676" style="stroke: #000000; stroke-width: 0.8"/>
      </g>
     </g>
     <g id="text_5">
      <!-- 0.020 -->
      <g transform="translate(27.734375 88.420895) scale(0.1 -0.1)">
       <defs>
        <path id="DejaVuSans-32" d="M 1228 531 
L 3431 531 
L 3431 0 
L 469 0 
L 469 531 
Q 828 903 1448 1529 
Q 2069 2156 2228 2338 
Q 2531 2678 2651 2914 
Q 2772 3150 2772 3378 
Q 2772 3750 2511 3984 
Q 2250 4219 1831 4219 
Q 1534 4219 1204 4116 
Q 875 4013 500 3803 
L 500 4441 
Q 881 4594 1212 4672 
Q 1544 4750 1819 4750 
Q 2544 4750 2975 4387 
Q 3406 4025 3406 3419 
Q 3406 3131 3298 2873 
Q 3191 2616 2906 2266 
Q 2828 2175 2409 1742 
Q 1991 1309 1228 531 
z
" transform="scale(0.015625)"/>
       </defs>
       <use xlink:href="#DejaVuSans-30"/>
       <use xlink:href="#DejaVuSans-2e" transform="translate(63.623047 0)"/>
       <use xlink:href="#DejaVuSans-30" transform="translate(95.410156 0)"/>
       <use xlink:href="#DejaVuSans-32" transform="translate(159.033203 0)"/>
       <use xlink:href="#DejaVuSans-30" transform="translate(222.65625 0)"/>
      </g>
     </g>
    </g>
    <g id="ytick_6">
     <g id="line2d_25">
      <path d="M 63.3625 63.83378 
L 449.608958 63.83378 
" clip-path="url(#p2724949995)" style="fill: none; stroke: #b0b0b0; stroke-opacity: 0.3; stroke-width: 0.8; stroke-linecap: square"/>
     </g>
     <g id="line2d_26">
      <g>
       <use xlink:href="#m45d508ba7a" x="63.3625" y="63.83378" style="stroke: #000000; stroke-width: 0.8"/>
      </g>
     </g>
     <g id="text_6">
      <!-- 0.025 -->
      <g transform="translate(27.734375 67.632999) scale(0.1 -0.1)">
       <use xlink:href="#DejaVuSans-30"/>
       <use xlink:href="#DejaVuSans-2e" transform="translate(63.623047 0)"/>
       <use xlink:href="#DejaVuSans-30" transform="translate(95.410156 0)"/>
       <use xlink:href="#DejaVuSans-32" transform="translate(159.033203 0)"/>
       <use xlink:href="#DejaVuSans-35" transform="translate(222.65625 0)"/>
      </g>
     </g>
    </g>
    <g id="ytick_7">
     <g id="line2d_27">
      <path d="M 63.3625 43.045884 
L 449.608958 43.045884 
" clip-path="url(#p2724949995)" style="fill: none; stroke: #b0b0b0; stroke-opacity: 0.3; stroke-width: 0.8; stroke-linecap: square"/>
     </g>
     <g id="line2d_28">
      <g>
       <use xlink:href="#m45d508ba7a" x="63.3625" y="43.045884" style="stroke: #000000; stroke-width: 0.8"/>
      </g>
     </g>
     <g id="text_7">
      <!-- 0.030 -->
      <g transform="translate(27.734375 46.845103) scale(0.1 -0.1)">
       <defs>
        <path id="DejaVuSans-33" d="M 2597 2516 
Q 3050 2419 3304 2112 
Q 3559 1806 3559 1356 
Q 3559 666 3084 287 
Q 2609 -91 1734 -91 
Q 1441 -91 1130 -33 
Q 819 25 488 141 
L 488 750 
Q 750 597 1062 519 
Q 1375 441 1716 441 
Q 2309 441 2620 675 
Q 2931 909 2931 1356 
Q 2931 1769 2642 2001 
Q 2353 2234 1838 2234 
L 1294 2234 
L 1294 2753 
L 1863 2753 
Q 2328 2753 2575 2939 
Q 2822 3125 2822 3475 
Q 2822 3834 2567 4026 
Q 2313 4219 1838 4219 
Q 1578 4219 1281 4162 
Q 984 4106 628 3988 
L 628 4550 
Q 988 4650 1302 4700 
Q 1616 4750 1894 4750 
Q 2613 4750 3031 4423 
Q 3450 4097 3450 3541 
Q 3450 3153 3228 2886 
Q 3006 2619 2597 2516 
z
" transform="scale(0.015625)"/>
       </defs>
       <use xlink:href="#DejaVuSans-30"/>
       <use xlink:href="#DejaVuSans-2e" transform="translate(63.623047 0)"/>
       <use xlink:href="#DejaVuSans-30" transform="translate(95.410156 0)"/>
       <use xlink:href="#DejaVuSans-33" transform="translate(159.033203 0)"/>
       <use xlink:href="#DejaVuSans-30" transform="translate(222.65625 0)"/>
      </g>
     </g>
    </g>
    <g id="ytick_8">
     <g id="line2d_29">
      <path d="M 63.3625 22.257988 
L 449.608958 22.257988 
" clip-path="url(#p2724949995)" style="fill: none; stroke: #b0b0b0; stroke-opacity: 0.3; stroke-width: 0.8; stroke-linecap: square"/>
     </g>
     <g id="line2d_30">
      <g>
       <use xlink:href="#m45d508ba7a" x="63.3625" y="22.257988" style="stroke: #000000; stroke-width: 0.8"/>
      </g>
     </g>
     <g id="text_8">
      <!-- 0.035 -->
      <g transform="translate(27.734375 26.057207) scale(0.1 -0.1)">
       <use xlink:href="#DejaVuSans-30"/>
       <use xlink:href="#DejaVuSans-2e" transform="translate(63.623047 0)"/>
       <use xlink:href="#DejaVuSans-30" transform="translate(95.410156 0)"/>
       <use xlink:href="#DejaVuSans-33" transform="translate(159.033203 0)"/>
       <use xlink:href="#DejaVuSans-35" transform="translate(222.65625 0)"/>
      </g>
     </g>
    </g>
    <g id="text_9">
     <!-- KL divergence -->
     <g transform="translate(20.614844 141.397441) rotate(-90) scale(0.15 -0.15)">
      <defs>
       <path id="DejaVuSans-4b" d="M 628 4666 
L 1259 4666 
L 1259 2694 
L 3353 4666 
L 4166 4666 
L 1850 2491 
L 4331 0 
L 3500 0 
L 1259 2247 
L 1259 0 
L 628 0 
L 628 4666 
z
" transform="scale(0.015625)"/>
       <path id="DejaVuSans-4c" d="M 628 4666 
L 1259 4666 
L 1259 531 
L 3531 531 
L 3531 0 
L 628 0 
L 628 4666 
z
" transform="scale(0.015625)"/>
       <path id="DejaVuSans-20" transform="scale(0.015625)"/>
       <path id="DejaVuSans-64" d="M 2906 2969 
L 2906 4863 
L 3481 4863 
L 3481 0 
L 2906 0 
L 2906 525 
Q 2725 213 2448 61 
Q 2172 -91 1784 -91 
Q 1150 -91 751 415 
Q 353 922 353 1747 
Q 353 2572 751 3078 
Q 1150 3584 1784 3584 
Q 2172 3584 2448 3432 
Q 2725 3281 2906 2969 
z
M 947 1747 
Q 947 1113 1208 752 
Q 1469 391 1925 391 
Q 2381 391 2643 752 
Q 2906 1113 2906 1747 
Q 2906 2381 2643 2742 
Q 2381 3103 1925 3103 
Q 1469 3103 1208 2742 
Q 947 2381 947 1747 
z
" transform="scale(0.015625)"/>
       <path id="DejaVuSans-69" d="M 603 3500 
L 1178 3500 
L 1178 0 
L 603 0 
L 603 3500 
z
M 603 4863 
L 1178 4863 
L 1178 4134 
L 603 4134 
L 603 4863 
z
" transform="scale(0.015625)"/>
       <path id="DejaVuSans-76" d="M 191 3500 
L 800 3500 
L 1894 563 
L 2988 3500 
L 3597 3500 
L 2284 0 
L 1503 0 
L 191 3500 
z
" transform="scale(0.015625)"/>
       <path id="DejaVuSans-65" d="M 3597 1894 
L 3597 1613 
L 953 1613 
Q 991 1019 1311 708 
Q 1631 397 2203 397 
Q 2534 397 2845 478 
Q 3156 559 3463 722 
L 3463 178 
Q 3153 47 2828 -22 
Q 2503 -91 2169 -91 
Q 1331 -91 842 396 
Q 353 884 353 1716 
Q 353 2575 817 3079 
Q 1281 3584 2069 3584 
Q 2775 3584 3186 3129 
Q 3597 2675 3597 1894 
z
M 3022 2063 
Q 3016 2534 2758 2815 
Q 2500 3097 2075 3097 
Q 1594 3097 1305 2825 
Q 1016 2553 972 2059 
L 3022 2063 
z
" transform="scale(0.015625)"/>
       <path id="DejaVuSans-72" d="M 2631 2963 
Q 2534 3019 2420 3045 
Q 2306 3072 2169 3072 
Q 1681 3072 1420 2755 
Q 1159 2438 1159 1844 
L 1159 0 
L 581 0 
L 581 3500 
L 1159 3500 
L 1159 2956 
Q 1341 3275 1631 3429 
Q 1922 3584 2338 3584 
Q 2397 3584 2469 3576 
Q 2541 3569 2628 3553 
L 2631 2963 
z
" transform="scale(0.015625)"/>
       <path id="DejaVuSans-67" d="M 2906 1791 
Q 2906 2416 2648 2759 
Q 2391 3103 1925 3103 
Q 1463 3103 1205 2759 
Q 947 2416 947 1791 
Q 947 1169 1205 825 
Q 1463 481 1925 481 
Q 2391 481 2648 825 
Q 2906 1169 2906 1791 
z
M 3481 434 
Q 3481 -459 3084 -895 
Q 2688 -1331 1869 -1331 
Q 1566 -1331 1297 -1286 
Q 1028 -1241 775 -1147 
L 775 -588 
Q 1028 -725 1275 -790 
Q 1522 -856 1778 -856 
Q 2344 -856 2625 -561 
Q 2906 -266 2906 331 
L 2906 616 
Q 2728 306 2450 153 
Q 2172 0 1784 0 
Q 1141 0 747 490 
Q 353 981 353 1791 
Q 353 2603 747 3093 
Q 1141 3584 1784 3584 
Q 2172 3584 2450 3431 
Q 2728 3278 2906 2969 
L 2906 3500 
L 3481 3500 
L 3481 434 
z
" transform="scale(0.015625)"/>
       <path id="DejaVuSans-6e" d="M 3513 2113 
L 3513 0 
L 2938 0 
L 2938 2094 
Q 2938 2591 2744 2837 
Q 2550 3084 2163 3084 
Q 1697 3084 1428 2787 
Q 1159 2491 1159 1978 
L 1159 0 
L 581 0 
L 581 3500 
L 1159 3500 
L 1159 2956 
Q 1366 3272 1645 3428 
Q 1925 3584 2291 3584 
Q 2894 3584 3203 3211 
Q 3513 2838 3513 2113 
z
" transform="scale(0.015625)"/>
       <path id="DejaVuSans-63" d="M 3122 3366 
L 3122 2828 
Q 2878 2963 2633 3030 
Q 2388 3097 2138 3097 
Q 1578 3097 1268 2742 
Q 959 2388 959 1747 
Q 959 1106 1268 751 
Q 1578 397 2138 397 
Q 2388 397 2633 464 
Q 2878 531 3122 666 
L 3122 134 
Q 2881 22 2623 -34 
Q 2366 -91 2075 -91 
Q 1284 -91 818 406 
Q 353 903 353 1747 
Q 353 2603 823 3093 
Q 1294 3584 2113 3584 
Q 2378 3584 2631 3529 
Q 2884 3475 3122 3366 
z
" transform="scale(0.015625)"/>
      </defs>
      <use xlink:href="#DejaVuSans-4b"/>
      <use xlink:href="#DejaVuSans-4c" transform="translate(65.576172 0)"/>
      <use xlink:href="#DejaVuSans-20" transform="translate(121.289062 0)"/>
      <use xlink:href="#DejaVuSans-64" transform="translate(153.076172 0)"/>
      <use xlink:href="#DejaVuSans-69" transform="translate(216.552734 0)"/>
      <use xlink:href="#DejaVuSans-76" transform="translate(244.335938 0)"/>
      <use xlink:href="#DejaVuSans-65" transform="translate(303.515625 0)"/>
      <use xlink:href="#DejaVuSans-72" transform="translate(365.039062 0)"/>
      <use xlink:href="#DejaVuSans-67" transform="translate(404.402344 0)"/>
      <use xlink:href="#DejaVuSans-65" transform="translate(467.878906 0)"/>
      <use xlink:href="#DejaVuSans-6e" transform="translate(529.402344 0)"/>
      <use xlink:href="#DejaVuSans-63" transform="translate(592.78125 0)"/>
      <use xlink:href="#DejaVuSans-65" transform="translate(647.761719 0)"/>
     </g>
    </g>
   </g>
   <g id="line2d_31">
    <path d="M 80.919157 14.563439 
L 93.027197 66.108119 
L 105.135236 104.13744 
L 117.243275 134.880807 
L 129.351315 144.023071 
L 141.459354 149.364624 
L 153.567394 152.698644 
L 165.675433 153.215573 
L 177.783473 153.901864 
L 189.891512 153.844002 
L 201.999551 154.634616 
L 214.107591 154.489538 
L 226.21563 156.626572 
L 238.32367 157.300774 
L 250.431709 157.946394 
L 262.539749 157.558314 
L 274.647788 157.307129 
L 286.755827 158.263813 
L 298.863867 159.823532 
L 310.971906 159.776838 
L 323.079946 160.14511 
L 335.187985 160.067895 
L 347.296025 160.515282 
L 359.404064 160.026417 
L 371.512103 161.629602 
L 383.620143 161.240938 
L 395.728182 161.760642 
L 407.836222 161.832223 
L 419.944261 161.795942 
L 432.052301 161.79103 
" clip-path="url(#p2724949995)" style="fill: none; stroke: #1f77b4; stroke-width: 1.5; stroke-linecap: square"/>
   </g>
   <g id="line2d_32">
    <path d="M 80.919157 14.563439 
L 93.027197 66.032056 
L 105.135236 104.042764 
L 117.243275 134.778035 
L 129.351315 143.960179 
L 141.459354 149.302259 
L 153.567394 152.683633 
L 165.675433 153.182548 
L 177.783473 153.867934 
L 189.891512 153.787223 
L 201.999551 154.614589 
L 214.107591 154.465493 
L 226.21563 156.606337 
L 238.32367 157.311522 
L 250.431709 157.899347 
L 262.539749 157.53147 
L 274.647788 157.290276 
L 286.755827 158.200314 
L 298.863867 159.826327 
L 310.971906 159.7062 
L 323.079946 160.122212 
L 335.187985 160.037259 
L 347.296025 160.49282 
L 359.404064 160.006757 
L 371.512103 161.569747 
L 383.620143 161.154956 
L 395.728182 161.692544 
L 407.836222 161.756819 
L 419.944261 161.708643 
L 432.052301 161.726586 
" clip-path="url(#p2724949995)" style="fill: none; stroke-dasharray: 5.55,2.4; stroke-dashoffset: 0; stroke: #ff7f0e; stroke-width: 1.5"/>
   </g>
   <g id="patch_3">
    <path d="M 63.3625 169.195663 
L 63.3625 7.2 
" style="fill: none; stroke: #000000; stroke-width: 0.8; stroke-linejoin: miter; stroke-linecap: square"/>
   </g>
   <g id="patch_4">
    <path d="M 449.608958 169.195663 
L 449.608958 7.2 
" style="fill: none; stroke: #000000; stroke-width: 0.8; stroke-linejoin: miter; stroke-linecap: square"/>
   </g>
   <g id="patch_5">
    <path d="M 63.3625 169.195663 
L 449.608958 169.195663 
" style="fill: none; stroke: #000000; stroke-width: 0.8; stroke-linejoin: miter; stroke-linecap: square"/>
   </g>
   <g id="patch_6">
    <path d="M 63.3625 7.2 
L 449.608958 7.2 
" style="fill: none; stroke: #000000; stroke-width: 0.8; stroke-linejoin: miter; stroke-linecap: square"/>
   </g>
   <g id="legend_1">
    <g id="patch_7">
     <path d="M 349.744895 44.55625 
L 442.608958 44.55625 
Q 444.608958 44.55625 444.608958 42.55625 
L 444.608958 14.2 
Q 444.608958 12.2 442.608958 12.2 
L 349.744895 12.2 
Q 347.744895 12.2 347.744895 14.2 
L 347.744895 42.55625 
Q 347.744895 44.55625 349.744895 44.55625 
z
" style="fill: #ffffff; opacity: 0.8; stroke: #cccccc; stroke-linejoin: miter"/>
    </g>
    <g id="line2d_33">
     <path d="M 351.744895 20.298437 
L 361.744895 20.298437 
L 371.744895 20.298437 
" style="fill: none; stroke: #1f77b4; stroke-width: 1.5; stroke-linecap: square"/>
    </g>
    <g id="text_10">
     <!-- control -->
     <g transform="translate(379.744895 23.798437) scale(0.1 -0.1)">
      <defs>
       <path id="DejaVuSans-6f" d="M 1959 3097 
Q 1497 3097 1228 2736 
Q 959 2375 959 1747 
Q 959 1119 1226 758 
Q 1494 397 1959 397 
Q 2419 397 2687 759 
Q 2956 1122 2956 1747 
Q 2956 2369 2687 2733 
Q 2419 3097 1959 3097 
z
M 1959 3584 
Q 2709 3584 3137 3096 
Q 3566 2609 3566 1747 
Q 3566 888 3137 398 
Q 2709 -91 1959 -91 
Q 1206 -91 779 398 
Q 353 888 353 1747 
Q 353 2609 779 3096 
Q 1206 3584 1959 3584 
z
" transform="scale(0.015625)"/>
       <path id="DejaVuSans-74" d="M 1172 4494 
L 1172 3500 
L 2356 3500 
L 2356 3053 
L 1172 3053 
L 1172 1153 
Q 1172 725 1289 603 
Q 1406 481 1766 481 
L 2356 481 
L 2356 0 
L 1766 0 
Q 1100 0 847 248 
Q 594 497 594 1153 
L 594 3053 
L 172 3053 
L 172 3500 
L 594 3500 
L 594 4494 
L 1172 4494 
z
" transform="scale(0.015625)"/>
       <path id="DejaVuSans-6c" d="M 603 4863 
L 1178 4863 
L 1178 0 
L 603 0 
L 603 4863 
z
" transform="scale(0.015625)"/>
      </defs>
      <use xlink:href="#DejaVuSans-63"/>
      <use xlink:href="#DejaVuSans-6f" transform="translate(54.980469 0)"/>
      <use xlink:href="#DejaVuSans-6e" transform="translate(116.162109 0)"/>
      <use xlink:href="#DejaVuSans-74" transform="translate(179.541016 0)"/>
      <use xlink:href="#DejaVuSans-72" transform="translate(218.75 0)"/>
      <use xlink:href="#DejaVuSans-6f" transform="translate(257.613281 0)"/>
      <use xlink:href="#DejaVuSans-6c" transform="translate(318.794922 0)"/>
     </g>
    </g>
    <g id="line2d_34">
     <path d="M 351.744895 34.976562 
L 361.744895 34.976562 
L 371.744895 34.976562 
" style="fill: none; stroke-dasharray: 5.55,2.4; stroke-dashoffset: 0; stroke: #ff7f0e; stroke-width: 1.5"/>
    </g>
    <g id="text_11">
     <!-- intervention -->
     <g transform="translate(379.744895 38.476562) scale(0.1 -0.1)">
      <use xlink:href="#DejaVuSans-69"/>
      <use xlink:href="#DejaVuSans-6e" transform="translate(27.783203 0)"/>
      <use xlink:href="#DejaVuSans-74" transform="translate(91.162109 0)"/>
      <use xlink:href="#DejaVuSans-65" transform="translate(130.371094 0)"/>
      <use xlink:href="#DejaVuSans-72" transform="translate(191.894531 0)"/>
      <use xlink:href="#DejaVuSans-76" transform="translate(233.007812 0)"/>
      <use xlink:href="#DejaVuSans-65" transform="translate(292.1875 0)"/>
      <use xlink:href="#DejaVuSans-6e" transform="translate(353.710938 0)"/>
      <use xlink:href="#DejaVuSans-74" transform="translate(417.089844 0)"/>
      <use xlink:href="#DejaVuSans-69" transform="translate(456.298828 0)"/>
      <use xlink:href="#DejaVuSans-6f" transform="translate(484.082031 0)"/>
      <use xlink:href="#DejaVuSans-6e" transform="translate(545.263672 0)"/>
     </g>
    </g>
   </g>
  </g>
  <g id="axes_2">
   <g id="patch_8">
    <path d="M 63.3625 347.657831 
L 449.608958 347.657831 
L 449.608958 185.662169 
L 63.3625 185.662169 
z
" style="fill: #ffffff"/>
   </g>
   <g id="matplotlib.axis_3">
    <g id="xtick_8">
     <g id="line2d_35">
      <path d="M 80.919157 347.657831 
L 80.919157 185.662169 
" clip-path="url(#p9378c598d1)" style="fill: none; stroke: #b0b0b0; stroke-opacity: 0.3; stroke-width: 0.8; stroke-linecap: square"/>
     </g>
     <g id="line2d_36">
      <g>
       <use xlink:href="#m61a1c029cc" x="80.919157" y="347.657831" style="stroke: #000000; stroke-width: 0.8"/>
      </g>
     </g>
    </g>
    <g id="xtick_9">
     <g id="line2d_37">
      <path d="M 141.459354 347.657831 
L 141.459354 185.662169 
" clip-path="url(#p9378c598d1)" style="fill: none; stroke: #b0b0b0; stroke-opacity: 0.3; stroke-width: 0.8; stroke-linecap: square"/>
     </g>
     <g id="line2d_38">
      <g>
       <use xlink:href="#m61a1c029cc" x="141.459354" y="347.657831" style="stroke: #000000; stroke-width: 0.8"/>
      </g>
     </g>
    </g>
    <g id="xtick_10">
     <g id="line2d_39">
      <path d="M 201.999551 347.657831 
L 201.999551 185.662169 
" clip-path="url(#p9378c598d1)" style="fill: none; stroke: #b0b0b0; stroke-opacity: 0.3; stroke-width: 0.8; stroke-linecap: square"/>
     </g>
     <g id="line2d_40">
      <g>
       <use xlink:href="#m61a1c029cc" x="201.999551" y="347.657831" style="stroke: #000000; stroke-width: 0.8"/>
      </g>
     </g>
    </g>
    <g id="xtick_11">
     <g id="line2d_41">
      <path d="M 262.539749 347.657831 
L 262.539749 185.662169 
" clip-path="url(#p9378c598d1)" style="fill: none; stroke: #b0b0b0; stroke-opacity: 0.3; stroke-width: 0.8; stroke-linecap: square"/>
     </g>
     <g id="line2d_42">
      <g>
       <use xlink:href="#m61a1c029cc" x="262.539749" y="347.657831" style="stroke: #000000; stroke-width: 0.8"/>
      </g>
     </g>
    </g>
    <g id="xtick_12">
     <g id="line2d_43">
      <path d="M 323.079946 347.657831 
L 323.079946 185.662169 
" clip-path="url(#p9378c598d1)" style="fill: none; stroke: #b0b0b0; stroke-opacity: 0.3; stroke-width: 0.8; stroke-linecap: square"/>
     </g>
     <g id="line2d_44">
      <g>
       <use xlink:href="#m61a1c029cc" x="323.079946" y="347.657831" style="stroke: #000000; stroke-width: 0.8"/>
      </g>
     </g>
    </g>
    <g id="xtick_13">
     <g id="line2d_45">
      <path d="M 383.620143 347.657831 
L 383.620143 185.662169 
" clip-path="url(#p9378c598d1)" style="fill: none; stroke: #b0b0b0; stroke-opacity: 0.3; stroke-width: 0.8; stroke-linecap: square"/>
     </g>
     <g id="line2d_46">
      <g>
       <use xlink:href="#m61a1c029cc" x="383.620143" y="347.657831" style="stroke: #000000; stroke-width: 0.8"/>
      </g>
     </g>
    </g>
    <g id="xtick_14">
     <g id="line2d_47">
      <path d="M 444.16034 347.657831 
L 444.16034 185.662169 
" clip-path="url(#p9378c598d1)" style="fill: none; stroke: #b0b0b0; stroke-opacity: 0.3; stroke-width: 0.8; stroke-linecap: square"/>
     </g>
     <g id="line2d_48">
      <g>
       <use xlink:href="#m61a1c029cc" x="444.16034" y="347.657831" style="stroke: #000000; stroke-width: 0.8"/>
      </g>
     </g>
    </g>
   </g>
   <g id="matplotlib.axis_4">
    <g id="ytick_9">
     <g id="line2d_49">
      <path d="M 63.3625 347.09466 
L 449.608958 347.09466 
" clip-path="url(#p9378c598d1)" style="fill: none; stroke: #b0b0b0; stroke-opacity: 0.3; stroke-width: 0.8; stroke-linecap: square"/>
     </g>
     <g id="line2d_50">
      <g>
       <use xlink:href="#m45d508ba7a" x="63.3625" y="347.09466" style="stroke: #000000; stroke-width: 0.8"/>
      </g>
     </g>
     <g id="text_12">
      <!-- 2 -->
      <g transform="translate(50 350.893879) scale(0.1 -0.1)">
       <use xlink:href="#DejaVuSans-32"/>
      </g>
     </g>
    </g>
    <g id="ytick_10">
     <g id="line2d_51">
      <path d="M 63.3625 310.763505 
L 449.608958 310.763505 
" clip-path="url(#p9378c598d1)" style="fill: none; stroke: #b0b0b0; stroke-opacity: 0.3; stroke-width: 0.8; stroke-linecap: square"/>
     </g>
     <g id="line2d_52">
      <g>
       <use xlink:href="#m45d508ba7a" x="63.3625" y="310.763505" style="stroke: #000000; stroke-width: 0.8"/>
      </g>
     </g>
     <g id="text_13">
      <!-- 3 -->
      <g transform="translate(50 314.562724) scale(0.1 -0.1)">
       <use xlink:href="#DejaVuSans-33"/>
      </g>
     </g>
    </g>
    <g id="ytick_11">
     <g id="line2d_53">
      <path d="M 63.3625 274.43235 
L 449.608958 274.43235 
" clip-path="url(#p9378c598d1)" style="fill: none; stroke: #b0b0b0; stroke-opacity: 0.3; stroke-width: 0.8; stroke-linecap: square"/>
     </g>
     <g id="line2d_54">
      <g>
       <use xlink:href="#m45d508ba7a" x="63.3625" y="274.43235" style="stroke: #000000; stroke-width: 0.8"/>
      </g>
     </g>
     <g id="text_14">
      <!-- 4 -->
      <g transform="translate(50 278.231569) scale(0.1 -0.1)">
       <defs>
        <path id="DejaVuSans-34" d="M 2419 4116 
L 825 1625 
L 2419 1625 
L 2419 4116 
z
M 2253 4666 
L 3047 4666 
L 3047 1625 
L 3713 1625 
L 3713 1100 
L 3047 1100 
L 3047 0 
L 2419 0 
L 2419 1100 
L 313 1100 
L 313 1709 
L 2253 4666 
z
" transform="scale(0.015625)"/>
       </defs>
       <use xlink:href="#DejaVuSans-34"/>
      </g>
     </g>
    </g>
    <g id="ytick_12">
     <g id="line2d_55">
      <path d="M 63.3625 238.101196 
L 449.608958 238.101196 
" clip-path="url(#p9378c598d1)" style="fill: none; stroke: #b0b0b0; stroke-opacity: 0.3; stroke-width: 0.8; stroke-linecap: square"/>
     </g>
     <g id="line2d_56">
      <g>
       <use xlink:href="#m45d508ba7a" x="63.3625" y="238.101196" style="stroke: #000000; stroke-width: 0.8"/>
      </g>
     </g>
     <g id="text_15">
      <!-- 5 -->
      <g transform="translate(50 241.900414) scale(0.1 -0.1)">
       <use xlink:href="#DejaVuSans-35"/>
      </g>
     </g>
    </g>
    <g id="ytick_13">
     <g id="line2d_57">
      <path d="M 63.3625 201.770041 
L 449.608958 201.770041 
" clip-path="url(#p9378c598d1)" style="fill: none; stroke: #b0b0b0; stroke-opacity: 0.3; stroke-width: 0.8; stroke-linecap: square"/>
     </g>
     <g id="line2d_58">
      <g>
       <use xlink:href="#m45d508ba7a" x="63.3625" y="201.770041" style="stroke: #000000; stroke-width: 0.8"/>
      </g>
     </g>
     <g id="text_16">
      <!-- 6 -->
      <g transform="translate(50 205.569259) scale(0.1 -0.1)">
       <defs>
        <path id="DejaVuSans-36" d="M 2113 2584 
Q 1688 2584 1439 2293 
Q 1191 2003 1191 1497 
Q 1191 994 1439 701 
Q 1688 409 2113 409 
Q 2538 409 2786 701 
Q 3034 994 3034 1497 
Q 3034 2003 2786 2293 
Q 2538 2584 2113 2584 
z
M 3366 4563 
L 3366 3988 
Q 3128 4100 2886 4159 
Q 2644 4219 2406 4219 
Q 1781 4219 1451 3797 
Q 1122 3375 1075 2522 
Q 1259 2794 1537 2939 
Q 1816 3084 2150 3084 
Q 2853 3084 3261 2657 
Q 3669 2231 3669 1497 
Q 3669 778 3244 343 
Q 2819 -91 2113 -91 
Q 1303 -91 875 529 
Q 447 1150 447 2328 
Q 447 3434 972 4092 
Q 1497 4750 2381 4750 
Q 2619 4750 2861 4703 
Q 3103 4656 3366 4563 
z
" transform="scale(0.015625)"/>
       </defs>
       <use xlink:href="#DejaVuSans-36"/>
      </g>
     </g>
    </g>
    <g id="text_17">
     <!-- Cross-entropy -->
     <g transform="translate(42.880469 318.932656) rotate(-90) scale(0.15 -0.15)">
      <defs>
       <path id="DejaVuSans-43" d="M 4122 4306 
L 4122 3641 
Q 3803 3938 3442 4084 
Q 3081 4231 2675 4231 
Q 1875 4231 1450 3742 
Q 1025 3253 1025 2328 
Q 1025 1406 1450 917 
Q 1875 428 2675 428 
Q 3081 428 3442 575 
Q 3803 722 4122 1019 
L 4122 359 
Q 3791 134 3420 21 
Q 3050 -91 2638 -91 
Q 1578 -91 968 557 
Q 359 1206 359 2328 
Q 359 3453 968 4101 
Q 1578 4750 2638 4750 
Q 3056 4750 3426 4639 
Q 3797 4528 4122 4306 
z
" transform="scale(0.015625)"/>
       <path id="DejaVuSans-73" d="M 2834 3397 
L 2834 2853 
Q 2591 2978 2328 3040 
Q 2066 3103 1784 3103 
Q 1356 3103 1142 2972 
Q 928 2841 928 2578 
Q 928 2378 1081 2264 
Q 1234 2150 1697 2047 
L 1894 2003 
Q 2506 1872 2764 1633 
Q 3022 1394 3022 966 
Q 3022 478 2636 193 
Q 2250 -91 1575 -91 
Q 1294 -91 989 -36 
Q 684 19 347 128 
L 347 722 
Q 666 556 975 473 
Q 1284 391 1588 391 
Q 1994 391 2212 530 
Q 2431 669 2431 922 
Q 2431 1156 2273 1281 
Q 2116 1406 1581 1522 
L 1381 1569 
Q 847 1681 609 1914 
Q 372 2147 372 2553 
Q 372 3047 722 3315 
Q 1072 3584 1716 3584 
Q 2034 3584 2315 3537 
Q 2597 3491 2834 3397 
z
" transform="scale(0.015625)"/>
       <path id="DejaVuSans-2d" d="M 313 2009 
L 1997 2009 
L 1997 1497 
L 313 1497 
L 313 2009 
z
" transform="scale(0.015625)"/>
       <path id="DejaVuSans-70" d="M 1159 525 
L 1159 -1331 
L 581 -1331 
L 581 3500 
L 1159 3500 
L 1159 2969 
Q 1341 3281 1617 3432 
Q 1894 3584 2278 3584 
Q 2916 3584 3314 3078 
Q 3713 2572 3713 1747 
Q 3713 922 3314 415 
Q 2916 -91 2278 -91 
Q 1894 -91 1617 61 
Q 1341 213 1159 525 
z
M 3116 1747 
Q 3116 2381 2855 2742 
Q 2594 3103 2138 3103 
Q 1681 3103 1420 2742 
Q 1159 2381 1159 1747 
Q 1159 1113 1420 752 
Q 1681 391 2138 391 
Q 2594 391 2855 752 
Q 3116 1113 3116 1747 
z
" transform="scale(0.015625)"/>
       <path id="DejaVuSans-79" d="M 2059 -325 
Q 1816 -950 1584 -1140 
Q 1353 -1331 966 -1331 
L 506 -1331 
L 506 -850 
L 844 -850 
Q 1081 -850 1212 -737 
Q 1344 -625 1503 -206 
L 1606 56 
L 191 3500 
L 800 3500 
L 1894 763 
L 2988 3500 
L 3597 3500 
L 2059 -325 
z
" transform="scale(0.015625)"/>
      </defs>
      <use xlink:href="#DejaVuSans-43"/>
      <use xlink:href="#DejaVuSans-72" transform="translate(69.824219 0)"/>
      <use xlink:href="#DejaVuSans-6f" transform="translate(108.6875 0)"/>
      <use xlink:href="#DejaVuSans-73" transform="translate(169.869141 0)"/>
      <use xlink:href="#DejaVuSans-73" transform="translate(221.96875 0)"/>
      <use xlink:href="#DejaVuSans-2d" transform="translate(274.068359 0)"/>
      <use xlink:href="#DejaVuSans-65" transform="translate(310.152344 0)"/>
      <use xlink:href="#DejaVuSans-6e" transform="translate(371.675781 0)"/>
      <use xlink:href="#DejaVuSans-74" transform="translate(435.054688 0)"/>
      <use xlink:href="#DejaVuSans-72" transform="translate(474.263672 0)"/>
      <use xlink:href="#DejaVuSans-6f" transform="translate(513.126953 0)"/>
      <use xlink:href="#DejaVuSans-70" transform="translate(574.308594 0)"/>
      <use xlink:href="#DejaVuSans-79" transform="translate(637.785156 0)"/>
     </g>
    </g>
   </g>
   <g id="line2d_59">
    <path d="M 80.919157 336.078932 
L 93.027197 336.18551 
L 105.135236 336.296999 
L 117.243275 336.543286 
L 129.351315 336.701169 
L 141.459354 336.662588 
L 153.567394 336.946408 
L 165.675433 336.961948 
L 177.783473 337.110943 
L 189.891512 337.373688 
L 201.999551 337.45531 
L 214.107591 337.646654 
L 226.21563 337.820319 
L 238.32367 337.743565 
L 250.431709 338.054315 
L 262.539749 338.227339 
L 274.647788 338.453097 
L 286.755827 338.357408 
L 298.863867 338.822619 
L 310.971906 339.085953 
L 323.079946 339.018086 
L 335.187985 338.85531 
L 347.296025 339.545907 
L 359.404064 339.664161 
L 371.512103 339.357889 
L 383.620143 339.56913 
L 395.728182 339.974711 
L 407.836222 339.943026 
L 419.944261 340.294392 
L 432.052301 340.238522 
" clip-path="url(#p9378c598d1)" style="fill: none; stroke: #1f77b4; stroke-width: 1.5; stroke-linecap: square"/>
   </g>
   <g id="line2d_60">
    <path d="M 80.919157 336.076672 
L 93.027197 335.798777 
L 105.135236 335.670709 
L 117.243275 335.35917 
L 129.351315 334.359226 
L 141.459354 333.703823 
L 153.567394 332.757861 
L 165.675433 331.844338 
L 177.783473 330.437964 
L 189.891512 329.039532 
L 201.999551 327.324287 
L 214.107591 325.2592 
L 226.21563 322.832292 
L 238.32367 319.851803 
L 250.431709 317.023912 
L 262.539749 314.398428 
L 274.647788 311.325809 
L 286.755827 302.347995 
L 298.863867 297.242469 
L 310.971906 288.462765 
L 323.079946 280.36218 
L 335.187985 273.115636 
L 347.296025 261.199483 
L 359.404064 250.127097 
L 371.512103 244.424853 
L 383.620143 227.559029 
L 395.728182 232.517327 
L 407.836222 220.27704 
L 419.944261 208.367435 
L 432.052301 193.025608 
" clip-path="url(#p9378c598d1)" style="fill: none; stroke: #ff7f0e; stroke-width: 1.5; stroke-linecap: square"/>
   </g>
   <g id="patch_9">
    <path d="M 63.3625 347.657831 
L 63.3625 185.662169 
" style="fill: none; stroke: #000000; stroke-width: 0.8; stroke-linejoin: miter; stroke-linecap: square"/>
   </g>
   <g id="patch_10">
    <path d="M 449.608958 347.657831 
L 449.608958 185.662169 
" style="fill: none; stroke: #000000; stroke-width: 0.8; stroke-linejoin: miter; stroke-linecap: square"/>
   </g>
   <g id="patch_11">
    <path d="M 63.3625 347.657831 
L 449.608958 347.657831 
" style="fill: none; stroke: #000000; stroke-width: 0.8; stroke-linejoin: miter; stroke-linecap: square"/>
   </g>
   <g id="patch_12">
    <path d="M 63.3625 185.662169 
L 449.608958 185.662169 
" style="fill: none; stroke: #000000; stroke-width: 0.8; stroke-linejoin: miter; stroke-linecap: square"/>
   </g>
   <g id="legend_2">
    <g id="patch_13">
     <path d="M 70.3625 223.018419 
L 163.226562 223.018419 
Q 165.226562 223.018419 165.226562 221.018419 
L 165.226562 192.662169 
Q 165.226562 190.662169 163.226562 190.662169 
L 70.3625 190.662169 
Q 68.3625 190.662169 68.3625 192.662169 
L 68.3625 221.018419 
Q 68.3625 223.018419 70.3625 223.018419 
z
" style="fill: #ffffff; opacity: 0.8; stroke: #cccccc; stroke-linejoin: miter"/>
    </g>
    <g id="line2d_61">
     <path d="M 72.3625 198.760606 
L 82.3625 198.760606 
L 92.3625 198.760606 
" style="fill: none; stroke: #1f77b4; stroke-width: 1.5; stroke-linecap: square"/>
    </g>
    <g id="text_18">
     <!-- control -->
     <g transform="translate(100.3625 202.260606) scale(0.1 -0.1)">
      <use xlink:href="#DejaVuSans-63"/>
      <use xlink:href="#DejaVuSans-6f" transform="translate(54.980469 0)"/>
      <use xlink:href="#DejaVuSans-6e" transform="translate(116.162109 0)"/>
      <use xlink:href="#DejaVuSans-74" transform="translate(179.541016 0)"/>
      <use xlink:href="#DejaVuSans-72" transform="translate(218.75 0)"/>
      <use xlink:href="#DejaVuSans-6f" transform="translate(257.613281 0)"/>
      <use xlink:href="#DejaVuSans-6c" transform="translate(318.794922 0)"/>
     </g>
    </g>
    <g id="line2d_62">
     <path d="M 72.3625 213.438731 
L 82.3625 213.438731 
L 92.3625 213.438731 
" style="fill: none; stroke: #ff7f0e; stroke-width: 1.5; stroke-linecap: square"/>
    </g>
    <g id="text_19">
     <!-- intervention -->
     <g transform="translate(100.3625 216.938731) scale(0.1 -0.1)">
      <use xlink:href="#DejaVuSans-69"/>
      <use xlink:href="#DejaVuSans-6e" transform="translate(27.783203 0)"/>
      <use xlink:href="#DejaVuSans-74" transform="translate(91.162109 0)"/>
      <use xlink:href="#DejaVuSans-65" transform="translate(130.371094 0)"/>
      <use xlink:href="#DejaVuSans-72" transform="translate(191.894531 0)"/>
      <use xlink:href="#DejaVuSans-76" transform="translate(233.007812 0)"/>
      <use xlink:href="#DejaVuSans-65" transform="translate(292.1875 0)"/>
      <use xlink:href="#DejaVuSans-6e" transform="translate(353.710938 0)"/>
      <use xlink:href="#DejaVuSans-74" transform="translate(417.089844 0)"/>
      <use xlink:href="#DejaVuSans-69" transform="translate(456.298828 0)"/>
      <use xlink:href="#DejaVuSans-6f" transform="translate(484.082031 0)"/>
      <use xlink:href="#DejaVuSans-6e" transform="translate(545.263672 0)"/>
     </g>
    </g>
   </g>
  </g>
  <g id="axes_3">
   <g id="patch_14">
    <path d="M 63.3625 526.12 
L 449.608958 526.12 
L 449.608958 364.124337 
L 63.3625 364.124337 
z
" style="fill: #ffffff"/>
   </g>
   <g id="matplotlib.axis_5">
    <g id="xtick_15">
     <g id="line2d_63">
      <path d="M 80.919157 526.12 
L 80.919157 364.124337 
" clip-path="url(#p63ac8faa7b)" style="fill: none; stroke: #b0b0b0; stroke-opacity: 0.3; stroke-width: 0.8; stroke-linecap: square"/>
     </g>
     <g id="line2d_64">
      <g>
       <use xlink:href="#m61a1c029cc" x="80.919157" y="526.12" style="stroke: #000000; stroke-width: 0.8"/>
      </g>
     </g>
     <g id="text_20">
      <!-- 0 -->
      <g transform="translate(77.737907 540.718437) scale(0.1 -0.1)">
       <use xlink:href="#DejaVuSans-30"/>
      </g>
     </g>
    </g>
    <g id="xtick_16">
     <g id="line2d_65">
      <path d="M 141.459354 526.12 
L 141.459354 364.124337 
" clip-path="url(#p63ac8faa7b)" style="fill: none; stroke: #b0b0b0; stroke-opacity: 0.3; stroke-width: 0.8; stroke-linecap: square"/>
     </g>
     <g id="line2d_66">
      <g>
       <use xlink:href="#m61a1c029cc" x="141.459354" y="526.12" style="stroke: #000000; stroke-width: 0.8"/>
      </g>
     </g>
     <g id="text_21">
      <!-- 50 -->
      <g transform="translate(135.096854 540.718437) scale(0.1 -0.1)">
       <use xlink:href="#DejaVuSans-35"/>
       <use xlink:href="#DejaVuSans-30" transform="translate(63.623047 0)"/>
      </g>
     </g>
    </g>
    <g id="xtick_17">
     <g id="line2d_67">
      <path d="M 201.999551 526.12 
L 201.999551 364.124337 
" clip-path="url(#p63ac8faa7b)" style="fill: none; stroke: #b0b0b0; stroke-opacity: 0.3; stroke-width: 0.8; stroke-linecap: square"/>
     </g>
     <g id="line2d_68">
      <g>
       <use xlink:href="#m61a1c029cc" x="201.999551" y="526.12" style="stroke: #000000; stroke-width: 0.8"/>
      </g>
     </g>
     <g id="text_22">
      <!-- 100 -->
      <g transform="translate(192.455801 540.718437) scale(0.1 -0.1)">
       <use xlink:href="#DejaVuSans-31"/>
       <use xlink:href="#DejaVuSans-30" transform="translate(63.623047 0)"/>
       <use xlink:href="#DejaVuSans-30" transform="translate(127.246094 0)"/>
      </g>
     </g>
    </g>
    <g id="xtick_18">
     <g id="line2d_69">
      <path d="M 262.539749 526.12 
L 262.539749 364.124337 
" clip-path="url(#p63ac8faa7b)" style="fill: none; stroke: #b0b0b0; stroke-opacity: 0.3; stroke-width: 0.8; stroke-linecap: square"/>
     </g>
     <g id="line2d_70">
      <g>
       <use xlink:href="#m61a1c029cc" x="262.539749" y="526.12" style="stroke: #000000; stroke-width: 0.8"/>
      </g>
     </g>
     <g id="text_23">
      <!-- 150 -->
      <g transform="translate(252.995999 540.718437) scale(0.1 -0.1)">
       <use xlink:href="#DejaVuSans-31"/>
       <use xlink:href="#DejaVuSans-35" transform="translate(63.623047 0)"/>
       <use xlink:href="#DejaVuSans-30" transform="translate(127.246094 0)"/>
      </g>
     </g>
    </g>
    <g id="xtick_19">
     <g id="line2d_71">
      <path d="M 323.079946 526.12 
L 323.079946 364.124337 
" clip-path="url(#p63ac8faa7b)" style="fill: none; stroke: #b0b0b0; stroke-opacity: 0.3; stroke-width: 0.8; stroke-linecap: square"/>
     </g>
     <g id="line2d_72">
      <g>
       <use xlink:href="#m61a1c029cc" x="323.079946" y="526.12" style="stroke: #000000; stroke-width: 0.8"/>
      </g>
     </g>
     <g id="text_24">
      <!-- 200 -->
      <g transform="translate(313.536196 540.718437) scale(0.1 -0.1)">
       <use xlink:href="#DejaVuSans-32"/>
       <use xlink:href="#DejaVuSans-30" transform="translate(63.623047 0)"/>
       <use xlink:href="#DejaVuSans-30" transform="translate(127.246094 0)"/>
      </g>
     </g>
    </g>
    <g id="xtick_20">
     <g id="line2d_73">
      <path d="M 383.620143 526.12 
L 383.620143 364.124337 
" clip-path="url(#p63ac8faa7b)" style="fill: none; stroke: #b0b0b0; stroke-opacity: 0.3; stroke-width: 0.8; stroke-linecap: square"/>
     </g>
     <g id="line2d_74">
      <g>
       <use xlink:href="#m61a1c029cc" x="383.620143" y="526.12" style="stroke: #000000; stroke-width: 0.8"/>
      </g>
     </g>
     <g id="text_25">
      <!-- 250 -->
      <g transform="translate(374.076393 540.718437) scale(0.1 -0.1)">
       <use xlink:href="#DejaVuSans-32"/>
       <use xlink:href="#DejaVuSans-35" transform="translate(63.623047 0)"/>
       <use xlink:href="#DejaVuSans-30" transform="translate(127.246094 0)"/>
      </g>
     </g>
    </g>
    <g id="xtick_21">
     <g id="line2d_75">
      <path d="M 444.16034 526.12 
L 444.16034 364.124337 
" clip-path="url(#p63ac8faa7b)" style="fill: none; stroke: #b0b0b0; stroke-opacity: 0.3; stroke-width: 0.8; stroke-linecap: square"/>
     </g>
     <g id="line2d_76">
      <g>
       <use xlink:href="#m61a1c029cc" x="444.16034" y="526.12" style="stroke: #000000; stroke-width: 0.8"/>
      </g>
     </g>
     <g id="text_26">
      <!-- 300 -->
      <g transform="translate(434.61659 540.718437) scale(0.1 -0.1)">
       <use xlink:href="#DejaVuSans-33"/>
       <use xlink:href="#DejaVuSans-30" transform="translate(63.623047 0)"/>
       <use xlink:href="#DejaVuSans-30" transform="translate(127.246094 0)"/>
      </g>
     </g>
    </g>
    <g id="text_27">
     <!-- Logged step -->
     <g transform="translate(210.343151 558.195781) scale(0.15 -0.15)">
      <use xlink:href="#DejaVuSans-4c"/>
      <use xlink:href="#DejaVuSans-6f" transform="translate(53.962891 0)"/>
      <use xlink:href="#DejaVuSans-67" transform="translate(115.144531 0)"/>
      <use xlink:href="#DejaVuSans-67" transform="translate(178.621094 0)"/>
      <use xlink:href="#DejaVuSans-65" transform="translate(242.097656 0)"/>
      <use xlink:href="#DejaVuSans-64" transform="translate(303.621094 0)"/>
      <use xlink:href="#DejaVuSans-20" transform="translate(367.097656 0)"/>
      <use xlink:href="#DejaVuSans-73" transform="translate(398.884766 0)"/>
      <use xlink:href="#DejaVuSans-74" transform="translate(450.984375 0)"/>
      <use xlink:href="#DejaVuSans-65" transform="translate(490.193359 0)"/>
      <use xlink:href="#DejaVuSans-70" transform="translate(551.716797 0)"/>
     </g>
    </g>
   </g>
   <g id="matplotlib.axis_6">
    <g id="ytick_14">
     <g id="line2d_77">
      <path d="M 63.3625 517.855131 
L 449.608958 517.855131 
" clip-path="url(#p63ac8faa7b)" style="fill: none; stroke: #b0b0b0; stroke-opacity: 0.3; stroke-width: 0.8; stroke-linecap: square"/>
     </g>
     <g id="line2d_78">
      <g>
       <use xlink:href="#m45d508ba7a" x="63.3625" y="517.855131" style="stroke: #000000; stroke-width: 0.8"/>
      </g>
     </g>
     <g id="text_28">
      <!-- −0.06 -->
      <g transform="translate(25.717188 521.65435) scale(0.1 -0.1)">
       <defs>
        <path id="DejaVuSans-2212" d="M 678 2272 
L 4684 2272 
L 4684 1741 
L 678 1741 
L 678 2272 
z
" transform="scale(0.015625)"/>
       </defs>
       <use xlink:href="#DejaVuSans-2212"/>
       <use xlink:href="#DejaVuSans-30" transform="translate(83.789062 0)"/>
       <use xlink:href="#DejaVuSans-2e" transform="translate(147.412109 0)"/>
       <use xlink:href="#DejaVuSans-30" transform="translate(179.199219 0)"/>
       <use xlink:href="#DejaVuSans-36" transform="translate(242.822266 0)"/>
      </g>
     </g>
    </g>
    <g id="ytick_15">
     <g id="line2d_79">
      <path d="M 63.3625 497.24247 
L 449.608958 497.24247 
" clip-path="url(#p63ac8faa7b)" style="fill: none; stroke: #b0b0b0; stroke-opacity: 0.3; stroke-width: 0.8; stroke-linecap: square"/>
     </g>
     <g id="line2d_80">
      <g>
       <use xlink:href="#m45d508ba7a" x="63.3625" y="497.24247" style="stroke: #000000; stroke-width: 0.8"/>
      </g>
     </g>
     <g id="text_29">
      <!-- −0.04 -->
      <g transform="translate(25.717188 501.041689) scale(0.1 -0.1)">
       <use xlink:href="#DejaVuSans-2212"/>
       <use xlink:href="#DejaVuSans-30" transform="translate(83.789062 0)"/>
       <use xlink:href="#DejaVuSans-2e" transform="translate(147.412109 0)"/>
       <use xlink:href="#DejaVuSans-30" transform="translate(179.199219 0)"/>
       <use xlink:href="#DejaVuSans-34" transform="translate(242.822266 0)"/>
      </g>
     </g>
    </g>
    <g id="ytick_16">
     <g id="line2d_81">
      <path d="M 63.3625 476.62981 
L 449.608958 476.62981 
" clip-path="url(#p63ac8faa7b)" style="fill: none; stroke: #b0b0b0; stroke-opacity: 0.3; stroke-width: 0.8; stroke-linecap: square"/>
     </g>
     <g id="line2d_82">
      <g>
       <use xlink:href="#m45d508ba7a" x="63.3625" y="476.62981" style="stroke: #000000; stroke-width: 0.8"/>
      </g>
     </g>
     <g id="text_30">
      <!-- −0.02 -->
      <g transform="translate(25.717188 480.429028) scale(0.1 -0.1)">
       <use xlink:href="#DejaVuSans-2212"/>
       <use xlink:href="#DejaVuSans-30" transform="translate(83.789062 0)"/>
       <use xlink:href="#DejaVuSans-2e" transform="translate(147.412109 0)"/>
       <use xlink:href="#DejaVuSans-30" transform="translate(179.199219 0)"/>
       <use xlink:href="#DejaVuSans-32" transform="translate(242.822266 0)"/>
      </g>
     </g>
    </g>
    <g id="ytick_17">
     <g id="line2d_83">
      <path d="M 63.3625 456.017149 
L 449.608958 456.017149 
" clip-path="url(#p63ac8faa7b)" style="fill: none; stroke: #b0b0b0; stroke-opacity: 0.3; stroke-width: 0.8; stroke-linecap: square"/>
     </g>
     <g id="line2d_84">
      <g>
       <use xlink:href="#m45d508ba7a" x="63.3625" y="456.017149" style="stroke: #000000; stroke-width: 0.8"/>
      </g>
     </g>
     <g id="text_31">
      <!-- 0.00 -->
      <g transform="translate(34.096875 459.816368) scale(0.1 -0.1)">
       <use xlink:href="#DejaVuSans-30"/>
       <use xlink:href="#DejaVuSans-2e" transform="translate(63.623047 0)"/>
       <use xlink:href="#DejaVuSans-30" transform="translate(95.410156 0)"/>
       <use xlink:href="#DejaVuSans-30" transform="translate(159.033203 0)"/>
      </g>
     </g>
    </g>
    <g id="ytick_18">
     <g id="line2d_85">
      <path d="M 63.3625 435.404488 
L 449.608958 435.404488 
" clip-path="url(#p63ac8faa7b)" style="fill: none; stroke: #b0b0b0; stroke-opacity: 0.3; stroke-width: 0.8; stroke-linecap: square"/>
     </g>
     <g id="line2d_86">
      <g>
       <use xlink:href="#m45d508ba7a" x="63.3625" y="435.404488" style="stroke: #000000; stroke-width: 0.8"/>
      </g>
     </g>
     <g id="text_32">
      <!-- 0.02 -->
      <g transform="translate(34.096875 439.203707) scale(0.1 -0.1)">
       <use xlink:href="#DejaVuSans-30"/>
       <use xlink:href="#DejaVuSans-2e" transform="translate(63.623047 0)"/>
       <use xlink:href="#DejaVuSans-30" transform="translate(95.410156 0)"/>
       <use xlink:href="#DejaVuSans-32" transform="translate(159.033203 0)"/>
      </g>
     </g>
    </g>
    <g id="ytick_19">
     <g id="line2d_87">
      <path d="M 63.3625 414.791828 
L 449.608958 414.791828 
" clip-path="url(#p63ac8faa7b)" style="fill: none; stroke: #b0b0b0; stroke-opacity: 0.3; stroke-width: 0.8; stroke-linecap: square"/>
     </g>
     <g id="line2d_88">
      <g>
       <use xlink:href="#m45d508ba7a" x="63.3625" y="414.791828" style="stroke: #000000; stroke-width: 0.8"/>
      </g>
     </g>
     <g id="text_33">
      <!-- 0.04 -->
      <g transform="translate(34.096875 418.591047) scale(0.1 -0.1)">
       <use xlink:href="#DejaVuSans-30"/>
       <use xlink:href="#DejaVuSans-2e" transform="translate(63.623047 0)"/>
       <use xlink:href="#DejaVuSans-30" transform="translate(95.410156 0)"/>
       <use xlink:href="#DejaVuSans-34" transform="translate(159.033203 0)"/>
      </g>
     </g>
    </g>
    <g id="ytick_20">
     <g id="line2d_89">
      <path d="M 63.3625 394.179167 
L 449.608958 394.179167 
" clip-path="url(#p63ac8faa7b)" style="fill: none; stroke: #b0b0b0; stroke-opacity: 0.3; stroke-width: 0.8; stroke-linecap: square"/>
     </g>
     <g id="line2d_90">
      <g>
       <use xlink:href="#m45d508ba7a" x="63.3625" y="394.179167" style="stroke: #000000; stroke-width: 0.8"/>
      </g>
     </g>
     <g id="text_34">
      <!-- 0.06 -->
      <g transform="translate(34.096875 397.978386) scale(0.1 -0.1)">
       <use xlink:href="#DejaVuSans-30"/>
       <use xlink:href="#DejaVuSans-2e" transform="translate(63.623047 0)"/>
       <use xlink:href="#DejaVuSans-30" transform="translate(95.410156 0)"/>
       <use xlink:href="#DejaVuSans-36" transform="translate(159.033203 0)"/>
      </g>
     </g>
    </g>
    <g id="ytick_21">
     <g id="line2d_91">
      <path d="M 63.3625 373.566507 
L 449.608958 373.566507 
" clip-path="url(#p63ac8faa7b)" style="fill: none; stroke: #b0b0b0; stroke-opacity: 0.3; stroke-width: 0.8; stroke-linecap: square"/>
     </g>
     <g id="line2d_92">
      <g>
       <use xlink:href="#m45d508ba7a" x="63.3625" y="373.566507" style="stroke: #000000; stroke-width: 0.8"/>
      </g>
     </g>
     <g id="text_35">
      <!-- 0.08 -->
      <g transform="translate(34.096875 377.365725) scale(0.1 -0.1)">
       <defs>
        <path id="DejaVuSans-38" d="M 2034 2216 
Q 1584 2216 1326 1975 
Q 1069 1734 1069 1313 
Q 1069 891 1326 650 
Q 1584 409 2034 409 
Q 2484 409 2743 651 
Q 3003 894 3003 1313 
Q 3003 1734 2745 1975 
Q 2488 2216 2034 2216 
z
M 1403 2484 
Q 997 2584 770 2862 
Q 544 3141 544 3541 
Q 544 4100 942 4425 
Q 1341 4750 2034 4750 
Q 2731 4750 3128 4425 
Q 3525 4100 3525 3541 
Q 3525 3141 3298 2862 
Q 3072 2584 2669 2484 
Q 3125 2378 3379 2068 
Q 3634 1759 3634 1313 
Q 3634 634 3220 271 
Q 2806 -91 2034 -91 
Q 1263 -91 848 271 
Q 434 634 434 1313 
Q 434 1759 690 2068 
Q 947 2378 1403 2484 
z
M 1172 3481 
Q 1172 3119 1398 2916 
Q 1625 2713 2034 2713 
Q 2441 2713 2670 2916 
Q 2900 3119 2900 3481 
Q 2900 3844 2670 4047 
Q 2441 4250 2034 4250 
Q 1625 4250 1398 4047 
Q 1172 3844 1172 3481 
z
" transform="scale(0.015625)"/>
       </defs>
       <use xlink:href="#DejaVuSans-30"/>
       <use xlink:href="#DejaVuSans-2e" transform="translate(63.623047 0)"/>
       <use xlink:href="#DejaVuSans-30" transform="translate(95.410156 0)"/>
       <use xlink:href="#DejaVuSans-38" transform="translate(159.033203 0)"/>
      </g>
     </g>
    </g>
    <g id="text_36">
     <!-- Cosine similarity -->
     <g transform="translate(18.597656 507.295997) rotate(-90) scale(0.15 -0.15)">
      <defs>
       <path id="DejaVuSans-6d" d="M 3328 2828 
Q 3544 3216 3844 3400 
Q 4144 3584 4550 3584 
Q 5097 3584 5394 3201 
Q 5691 2819 5691 2113 
L 5691 0 
L 5113 0 
L 5113 2094 
Q 5113 2597 4934 2840 
Q 4756 3084 4391 3084 
Q 3944 3084 3684 2787 
Q 3425 2491 3425 1978 
L 3425 0 
L 2847 0 
L 2847 2094 
Q 2847 2600 2669 2842 
Q 2491 3084 2119 3084 
Q 1678 3084 1418 2786 
Q 1159 2488 1159 1978 
L 1159 0 
L 581 0 
L 581 3500 
L 1159 3500 
L 1159 2956 
Q 1356 3278 1631 3431 
Q 1906 3584 2284 3584 
Q 2666 3584 2933 3390 
Q 3200 3197 3328 2828 
z
" transform="scale(0.015625)"/>
       <path id="DejaVuSans-61" d="M 2194 1759 
Q 1497 1759 1228 1600 
Q 959 1441 959 1056 
Q 959 750 1161 570 
Q 1363 391 1709 391 
Q 2188 391 2477 730 
Q 2766 1069 2766 1631 
L 2766 1759 
L 2194 1759 
z
M 3341 1997 
L 3341 0 
L 2766 0 
L 2766 531 
Q 2569 213 2275 61 
Q 1981 -91 1556 -91 
Q 1019 -91 701 211 
Q 384 513 384 1019 
Q 384 1609 779 1909 
Q 1175 2209 1959 2209 
L 2766 2209 
L 2766 2266 
Q 2766 2663 2505 2880 
Q 2244 3097 1772 3097 
Q 1472 3097 1187 3025 
Q 903 2953 641 2809 
L 641 3341 
Q 956 3463 1253 3523 
Q 1550 3584 1831 3584 
Q 2591 3584 2966 3190 
Q 3341 2797 3341 1997 
z
" transform="scale(0.015625)"/>
      </defs>
      <use xlink:href="#DejaVuSans-43"/>
      <use xlink:href="#DejaVuSans-6f" transform="translate(69.824219 0)"/>
      <use xlink:href="#DejaVuSans-73" transform="translate(131.005859 0)"/>
      <use xlink:href="#DejaVuSans-69" transform="translate(183.105469 0)"/>
      <use xlink:href="#DejaVuSans-6e" transform="translate(210.888672 0)"/>
      <use xlink:href="#DejaVuSans-65" transform="translate(274.267578 0)"/>
      <use xlink:href="#DejaVuSans-20" transform="translate(335.791016 0)"/>
      <use xlink:href="#DejaVuSans-73" transform="translate(367.578125 0)"/>
      <use xlink:href="#DejaVuSans-69" transform="translate(419.677734 0)"/>
      <use xlink:href="#DejaVuSans-6d" transform="translate(447.460938 0)"/>
      <use xlink:href="#DejaVuSans-69" transform="translate(544.873047 0)"/>
      <use xlink:href="#DejaVuSans-6c" transform="translate(572.65625 0)"/>
      <use xlink:href="#DejaVuSans-61" transform="translate(600.439453 0)"/>
      <use xlink:href="#DejaVuSans-72" transform="translate(661.71875 0)"/>
      <use xlink:href="#DejaVuSans-69" transform="translate(702.832031 0)"/>
      <use xlink:href="#DejaVuSans-74" transform="translate(730.615234 0)"/>
      <use xlink:href="#DejaVuSans-79" transform="translate(769.824219 0)"/>
     </g>
    </g>
   </g>
   <g id="line2d_93">
    <path d="M 80.919157 438.23122 
L 93.027197 440.231308 
L 105.135236 442.441258 
L 117.243275 446.605648 
L 129.351315 448.424127 
L 141.459354 454.956724 
L 153.567394 443.137338 
L 165.675433 449.213267 
L 177.783473 457.037677 
L 189.891512 458.702832 
L 201.999551 455.591687 
L 214.107591 449.05687 
L 226.21563 452.367219 
L 238.32367 443.341755 
L 250.431709 440.868433 
L 262.539749 447.592459 
L 274.647788 440.644055 
L 286.755827 439.952956 
L 298.863867 442.664168 
L 310.971906 444.542859 
L 323.079946 458.202858 
L 335.187985 458.510957 
L 347.296025 455.652448 
L 359.404064 451.934366 
L 371.512103 440.235013 
L 383.620143 458.421323 
L 395.728182 456.012669 
L 407.836222 443.869283 
L 419.944261 458.688598 
L 432.052301 454.292909 
" clip-path="url(#p63ac8faa7b)" style="fill: none; stroke: #1f77b4; stroke-width: 1.5; stroke-linecap: square"/>
   </g>
   <g id="line2d_94">
    <path d="M 80.919157 456.017163 
L 93.027197 456.017168 
L 105.135236 456.017152 
L 117.243275 463.832191 
L 129.351315 456.017168 
L 141.459354 456.017168 
L 153.567394 456.01715 
L 165.675433 458.950188 
L 177.783473 476.975028 
L 189.891512 456.279001 
L 201.999551 479.13311 
L 214.107591 504.192153 
L 226.21563 456.017208 
L 238.32367 488.136941 
L 250.431709 456.017234 
L 262.539749 456.017149 
L 274.647788 456.017249 
L 286.755827 456.017305 
L 298.863867 456.017279 
L 310.971906 504.208851 
L 323.079946 518.756561 
L 335.187985 511.793032 
L 347.296025 456.017192 
L 359.404064 506.283801 
L 371.512103 456.017254 
L 383.620143 464.060976 
L 395.728182 481.114481 
L 407.836222 456.017252 
L 419.944261 456.01722 
L 432.052301 490.766338 
" clip-path="url(#p63ac8faa7b)" style="fill: none; stroke: #ff7f0e; stroke-width: 1.5; stroke-linecap: square"/>
   </g>
   <g id="line2d_95">
    <path d="M 80.919157 445.238912 
L 93.027197 443.363211 
L 105.135236 454.52715 
L 117.243275 463.832191 
L 129.351315 435.06197 
L 141.459354 432.057555 
L 153.567394 441.32677 
L 165.675433 458.950188 
L 177.783473 476.975028 
L 189.891512 456.279001 
L 201.999551 479.13311 
L 214.107591 504.192153 
L 226.21563 422.535905 
L 238.32367 488.136941 
L 250.431709 412.155692 
L 262.539749 449.376247 
L 274.647788 377.05964 
L 286.755827 371.487777 
L 298.863867 382.130329 
L 310.971906 504.208851 
L 323.079946 518.756561 
L 335.187985 511.793032 
L 347.296025 425.135338 
L 359.404064 506.283801 
L 371.512103 383.330728 
L 383.620143 464.060976 
L 395.728182 481.114481 
L 407.836222 386.734854 
L 419.944261 412.406175 
L 432.052301 490.766338 
" clip-path="url(#p63ac8faa7b)" style="fill: none; stroke-dasharray: 5.55,2.4; stroke-dashoffset: 0; stroke: #2ca02c; stroke-width: 1.5"/>
   </g>
   <g id="line2d_96">
    <path d="M 63.3625 456.017149 
L 449.608958 456.017149 
" clip-path="url(#p63ac8faa7b)" style="fill: none; stroke: #1f77b4; stroke-linecap: square"/>
   </g>
   <g id="patch_15">
    <path d="M 63.3625 526.12 
L 63.3625 364.124337 
" style="fill: none; stroke: #000000; stroke-width: 0.8; stroke-linejoin: miter; stroke-linecap: square"/>
   </g>
   <g id="patch_16">
    <path d="M 449.608958 526.12 
L 449.608958 364.124337 
" style="fill: none; stroke: #000000; stroke-width: 0.8; stroke-linejoin: miter; stroke-linecap: square"/>
   </g>
   <g id="patch_17">
    <path d="M 63.3625 526.12 
L 449.608958 526.12 
" style="fill: none; stroke: #000000; stroke-width: 0.8; stroke-linejoin: miter; stroke-linecap: square"/>
   </g>
   <g id="patch_18">
    <path d="M 63.3625 364.124337 
L 449.608958 364.124337 
" style="fill: none; stroke: #000000; stroke-width: 0.8; stroke-linejoin: miter; stroke-linecap: square"/>
   </g>
   <g id="legend_3">
    <g id="patch_19">
     <path d="M 70.3625 416.714962 
L 217.63125 416.714962 
Q 219.63125 416.714962 219.63125 414.714962 
L 219.63125 371.124337 
Q 219.63125 369.124337 217.63125 369.124337 
L 70.3625 369.124337 
Q 68.3625 369.124337 68.3625 371.124337 
L 68.3625 414.714962 
Q 68.3625 416.714962 70.3625 416.714962 
z
" style="fill: #ffffff; opacity: 0.8; stroke: #cccccc; stroke-linejoin: miter"/>
    </g>
    <g id="line2d_97">
     <path d="M 72.3625 377.222775 
L 82.3625 377.222775 
L 92.3625 377.222775 
" style="fill: none; stroke: #1f77b4; stroke-width: 1.5; stroke-linecap: square"/>
    </g>
    <g id="text_37">
     <!-- control -->
     <g transform="translate(100.3625 380.722775) scale(0.1 -0.1)">
      <use xlink:href="#DejaVuSans-63"/>
      <use xlink:href="#DejaVuSans-6f" transform="translate(54.980469 0)"/>
      <use xlink:href="#DejaVuSans-6e" transform="translate(116.162109 0)"/>
      <use xlink:href="#DejaVuSans-74" transform="translate(179.541016 0)"/>
      <use xlink:href="#DejaVuSans-72" transform="translate(218.75 0)"/>
      <use xlink:href="#DejaVuSans-6f" transform="translate(257.613281 0)"/>
      <use xlink:href="#DejaVuSans-6c" transform="translate(318.794922 0)"/>
     </g>
    </g>
    <g id="line2d_98">
     <path d="M 72.3625 391.9009 
L 82.3625 391.9009 
L 92.3625 391.9009 
" style="fill: none; stroke: #ff7f0e; stroke-width: 1.5; stroke-linecap: square"/>
    </g>
    <g id="text_38">
     <!-- intervention (cos_post) -->
     <g transform="translate(100.3625 395.4009) scale(0.1 -0.1)">
      <defs>
       <path id="DejaVuSans-28" d="M 1984 4856 
Q 1566 4138 1362 3434 
Q 1159 2731 1159 2009 
Q 1159 1288 1364 580 
Q 1569 -128 1984 -844 
L 1484 -844 
Q 1016 -109 783 600 
Q 550 1309 550 2009 
Q 550 2706 781 3412 
Q 1013 4119 1484 4856 
L 1984 4856 
z
" transform="scale(0.015625)"/>
       <path id="DejaVuSans-5f" d="M 3263 -1063 
L 3263 -1509 
L -63 -1509 
L -63 -1063 
L 3263 -1063 
z
" transform="scale(0.015625)"/>
       <path id="DejaVuSans-29" d="M 513 4856 
L 1013 4856 
Q 1481 4119 1714 3412 
Q 1947 2706 1947 2009 
Q 1947 1309 1714 600 
Q 1481 -109 1013 -844 
L 513 -844 
Q 928 -128 1133 580 
Q 1338 1288 1338 2009 
Q 1338 2731 1133 3434 
Q 928 4138 513 4856 
z
" transform="scale(0.015625)"/>
      </defs>
      <use xlink:href="#DejaVuSans-69"/>
      <use xlink:href="#DejaVuSans-6e" transform="translate(27.783203 0)"/>
      <use xlink:href="#DejaVuSans-74" transform="translate(91.162109 0)"/>
      <use xlink:href="#DejaVuSans-65" transform="translate(130.371094 0)"/>
      <use xlink:href="#DejaVuSans-72" transform="translate(191.894531 0)"/>
      <use xlink:href="#DejaVuSans-76" transform="translate(233.007812 0)"/>
      <use xlink:href="#DejaVuSans-65" transform="translate(292.1875 0)"/>
      <use xlink:href="#DejaVuSans-6e" transform="translate(353.710938 0)"/>
      <use xlink:href="#DejaVuSans-74" transform="translate(417.089844 0)"/>
      <use xlink:href="#DejaVuSans-69" transform="translate(456.298828 0)"/>
      <use xlink:href="#DejaVuSans-6f" transform="translate(484.082031 0)"/>
      <use xlink:href="#DejaVuSans-6e" transform="translate(545.263672 0)"/>
      <use xlink:href="#DejaVuSans-20" transform="translate(608.642578 0)"/>
      <use xlink:href="#DejaVuSans-28" transform="translate(640.429688 0)"/>
      <use xlink:href="#DejaVuSans-63" transform="translate(679.443359 0)"/>
      <use xlink:href="#DejaVuSans-6f" transform="translate(734.423828 0)"/>
      <use xlink:href="#DejaVuSans-73" transform="translate(795.605469 0)"/>
      <use xlink:href="#DejaVuSans-5f" transform="translate(847.705078 0)"/>
      <use xlink:href="#DejaVuSans-70" transform="translate(897.705078 0)"/>
      <use xlink:href="#DejaVuSans-6f" transform="translate(961.181641 0)"/>
      <use xlink:href="#DejaVuSans-73" transform="translate(1022.363281 0)"/>
      <use xlink:href="#DejaVuSans-74" transform="translate(1074.462891 0)"/>
      <use xlink:href="#DejaVuSans-29" transform="translate(1113.671875 0)"/>
     </g>
    </g>
    <g id="line2d_99">
     <path d="M 72.3625 406.85715 
L 82.3625 406.85715 
L 92.3625 406.85715 
" style="fill: none; stroke-dasharray: 5.55,2.4; stroke-dashoffset: 0; stroke: #2ca02c; stroke-width: 1.5"/>
    </g>
    <g id="text_39">
     <!-- intervention (cos_pre) -->
     <g transform="translate(100.3625 410.35715) scale(0.1 -0.1)">
      <use xlink:href="#DejaVuSans-69"/>
      <use xlink:href="#DejaVuSans-6e" transform="translate(27.783203 0)"/>
      <use xlink:href="#DejaVuSans-74" transform="translate(91.162109 0)"/>
      <use xlink:href="#DejaVuSans-65" transform="translate(130.371094 0)"/>
      <use xlink:href="#DejaVuSans-72" transform="translate(191.894531 0)"/>
      <use xlink:href="#DejaVuSans-76" transform="translate(233.007812 0)"/>
      <use xlink:href="#DejaVuSans-65" transform="translate(292.1875 0)"/>
      <use xlink:href="#DejaVuSans-6e" transform="translate(353.710938 0)"/>
      <use xlink:href="#DejaVuSans-74" transform="translate(417.089844 0)"/>
      <use xlink:href="#DejaVuSans-69" transform="translate(456.298828 0)"/>
      <use xlink:href="#DejaVuSans-6f" transform="translate(484.082031 0)"/>
      <use xlink:href="#DejaVuSans-6e" transform="translate(545.263672 0)"/>
      <use xlink:href="#DejaVuSans-20" transform="translate(608.642578 0)"/>
      <use xlink:href="#DejaVuSans-28" transform="translate(640.429688 0)"/>
      <use xlink:href="#DejaVuSans-63" transform="translate(679.443359 0)"/>
      <use xlink:href="#DejaVuSans-6f" transform="translate(734.423828 0)"/>
      <use xlink:href="#DejaVuSans-73" transform="translate(795.605469 0)"/>
      <use xlink:href="#DejaVuSans-5f" transform="translate(847.705078 0)"/>
      <use xlink:href="#DejaVuSans-70" transform="translate(897.705078 0)"/>
      <use xlink:href="#DejaVuSans-72" transform="translate(961.181641 0)"/>
      <use xlink:href="#DejaVuSans-65" transform="translate(1000.044922 0)"/>
      <use xlink:href="#DejaVuSans-29" transform="translate(1061.568359 0)"/>
     </g>
    </g>
   </g>
  </g>
 </g>
 <defs>
  <clipPath id="p2724949995">
   <rect x="63.3625" y="7.2" width="386.246458" height="161.995663"/>
  </clipPath>
  <clipPath id="p9378c598d1">
   <rect x="63.3625" y="185.662169" width="386.246458" height="161.995663"/>
  </clipPath>
  <clipPath id="p63ac8faa7b">
   <rect x="63.3625" y="364.124337" width="386.246458" height="161.995663"/>
  </clipPath>
 </defs>
</svg>
