<?xml version="1.0" encoding="utf-8" standalone="no"?>
<!DOCTYPE svg PUBLIC "-//W3C//DTD SVG 1.1//EN"
  "http://www.w3.org/Graphics/SVG/1.1/DTD/svg11.dtd">
<svg xmlns:xlink="http://www.w3.org/1999/xlink" width="463.00753pt" height="570.861637pt" viewBox="0 0 463.00753 570.861637" xmlns="http://www.w3.org/2000/svg" version="1.1">
 <metadata>
  <rdf:RDF xmlns:dc="http://purl.org/dc/elements/1.1/" xmlns:cc="http://creativecommons.org/ns#" xmlns:rdf="http://www.w3.org/1999/02/22-rdf-syntax-ns#">
   <cc:Work>
    <dc:type rdf:resource="http://purl.org/dc/dcmitype/StillImage"/>
    <dc:date>2026-04-18T02:58:50.177405</dc:date>
    <dc:format>image/svg+xml</dc:format>
    <dc:creator>
     <cc:Agent>
      <dc:title>Matplotlib v3.10.0, https://matplotlib.org/</dc:title>
     </cc:Agent>
    </dc:creator>
   </cc:Work>
  </rdf:RDF>
 </metadata>
 <defs>
  <style type="text/css">*{stroke-linejoin: round; stroke-linecap: butt}</style>
 </defs>
 <g id="figure_1">
  <g id="patch_1">
   <path d="M 0 570.861637 
L 463.00753 570.861637 
L 463.00753 0 
L 0 0 
z
" style="fill: #ffffff"/>
  </g>
  <g id="axes_1">
   <g id="patch_2">
    <path d="M 69.725 171.242733 
L 451.651458 171.242733 
L 451.651458 9.546325 
L 69.725 9.546325 
z
" style="fill: #ffffff"/>
   </g>
   <g id="FillBetweenPolyCollection_1">
    <defs>
     <path id="mea242f8fc9" d="M 87.085294 -553.965476 
L 87.085294 -477.168297 
L 99.05791 -438.618956 
L 111.030526 -430.540162 
L 123.003142 -428.087101 
L 134.975758 -426.012244 
L 146.948375 -424.778533 
L 158.920991 -418.056994 
L 170.893607 -417.098008 
L 182.866223 -416.565264 
L 194.83884 -416.109958 
L 206.811456 -415.902597 
L 218.784072 -415.707412 
L 230.756688 -411.596716 
L 242.729304 -411.303581 
L 254.701921 -411.187649 
L 266.674537 -411.194892 
L 278.647153 -411.213946 
L 290.619769 -411.272612 
L 302.592386 -408.652792 
L 314.565002 -408.508792 
L 326.537618 -408.521377 
L 338.510234 -408.63134 
L 350.482851 -408.742857 
L 362.455467 -408.815701 
L 374.428083 -407.021681 
L 386.400699 -406.968741 
L 398.373315 -407.045803 
L 410.345932 -407.220099 
L 422.318548 -407.292085 
L 434.291164 -407.450626 
L 434.291164 -408.329863 
L 434.291164 -408.329863 
L 422.318548 -408.167591 
L 410.345932 -408.01905 
L 398.373315 -407.904168 
L 386.400699 -407.835309 
L 374.428083 -407.906344 
L 362.455467 -410.06056 
L 350.482851 -409.976682 
L 338.510234 -409.817914 
L 326.537618 -409.731935 
L 314.565002 -409.785889 
L 302.592386 -409.889506 
L 290.619769 -413.000337 
L 278.647153 -413.026491 
L 266.674537 -412.94153 
L 254.701921 -413.041085 
L 242.729304 -413.252712 
L 230.756688 -413.569249 
L 218.784072 -418.548752 
L 206.811456 -418.683183 
L 194.83884 -418.998881 
L 182.866223 -419.46944 
L 170.893607 -420.105984 
L 158.920991 -421.211101 
L 146.948375 -429.168438 
L 134.975758 -430.561524 
L 123.003142 -432.797101 
L 111.030526 -437.732777 
L 99.05791 -455.395362 
L 87.085294 -553.965476 
z
" style="stroke: #1f77b4; stroke-opacity: 0.25"/>
    </defs>
    <g clip-path="url(#pc0cd5e9ea9)">
     <use xlink:href="#mea242f8fc9" x="0" y="570.861637" style="fill: #1f77b4; fill-opacity: 0.25; stroke: #1f77b4; stroke-opacity: 0.25"/>
    </g>
   </g>
   <g id="FillBetweenPolyCollection_2">
    <defs>
     <path id="m2edd906214" d="M 87.085294 -553.965476 
L 87.085294 -477.168297 
L 99.05791 -438.703193 
L 111.030526 -430.64422 
L 123.003142 -428.209398 
L 134.975758 -426.146977 
L 146.948375 -424.917971 
L 158.920991 -418.163175 
L 170.893607 -417.205994 
L 182.866223 -416.681681 
L 194.83884 -416.223693 
L 206.811456 -416.021711 
L 218.784072 -415.824571 
L 230.756688 -411.682052 
L 242.729304 -411.378812 
L 254.701921 -411.267889 
L 266.674537 -411.280819 
L 278.647153 -411.295478 
L 290.619769 -411.35974 
L 302.592386 -408.713742 
L 314.565002 -408.570108 
L 326.537618 -408.586182 
L 338.510234 -408.69569 
L 350.482851 -408.807408 
L 362.455467 -408.883258 
L 374.428083 -407.065731 
L 386.400699 -407.014137 
L 398.373315 -407.087008 
L 410.345932 -407.266424 
L 422.318548 -407.345994 
L 434.291164 -407.494612 
L 434.291164 -408.409475 
L 434.291164 -408.409475 
L 422.318548 -408.244465 
L 410.345932 -408.094794 
L 398.373315 -407.975201 
L 386.400699 -407.908096 
L 374.428083 -407.978035 
L 362.455467 -410.164656 
L 350.482851 -410.081707 
L 338.510234 -409.915185 
L 326.537618 -409.83034 
L 314.565002 -409.885487 
L 302.592386 -409.987411 
L 290.619769 -413.126757 
L 278.647153 -413.154019 
L 266.674537 -413.069843 
L 254.701921 -413.167273 
L 242.729304 -413.392043 
L 230.756688 -413.705279 
L 218.784072 -418.718651 
L 206.811456 -418.856155 
L 194.83884 -419.1782 
L 182.866223 -419.639864 
L 170.893607 -420.283916 
L 158.920991 -421.382325 
L 146.948375 -429.377143 
L 134.975758 -430.766296 
L 123.003142 -432.982001 
L 111.030526 -437.883107 
L 99.05791 -455.528671 
L 87.085294 -553.965476 
z
" style="stroke: #ff7f0e; stroke-opacity: 0.25"/>
    </defs>
    <g clip-path="url(#pc0cd5e9ea9)">
     <use xlink:href="#m2edd906214" x="0" y="570.861637" style="fill: #ff7f0e; fill-opacity: 0.25; stroke: #ff7f0e; stroke-opacity: 0.25"/>
    </g>
   </g>
   <g id="matplotlib.axis_1">
    <g id="xtick_1">
     <g id="line2d_1">
      <path d="M 87.085294 171.242733 
L 87.085294 9.546325 
" clip-path="url(#pc0cd5e9ea9)" style="fill: none; stroke: #b0b0b0; stroke-opacity: 0.3; stroke-width: 0.8; stroke-linecap: square"/>
     </g>
     <g id="line2d_2">
      <defs>
       <path id="m9cd64e0dab" d="M 0 0 
L 0 3.5 
" style="stroke: #000000; stroke-width: 0.8"/>
      </defs>
      <g>
       <use xlink:href="#m9cd64e0dab" x="87.085294" y="171.242733" style="stroke: #000000; stroke-width: 0.8"/>
      </g>
     </g>
    </g>
    <g id="xtick_2">
     <g id="line2d_3">
      <path d="M 146.948375 171.242733 
L 146.948375 9.546325 
" clip-path="url(#pc0cd5e9ea9)" style="fill: none; stroke: #b0b0b0; stroke-opacity: 0.3; stroke-width: 0.8; stroke-linecap: square"/>
     </g>
     <g id="line2d_4">
      <g>
       <use xlink:href="#m9cd64e0dab" x="146.948375" y="171.242733" style="stroke: #000000; stroke-width: 0.8"/>
      </g>
     </g>
    </g>
    <g id="xtick_3">
     <g id="line2d_5">
      <path d="M 206.811456 171.242733 
L 206.811456 9.546325 
" clip-path="url(#pc0cd5e9ea9)" style="fill: none; stroke: #b0b0b0; stroke-opacity: 0.3; stroke-width: 0.8; stroke-linecap: square"/>
     </g>
     <g id="line2d_6">
      <g>
       <use xlink:href="#m9cd64e0dab" x="206.811456" y="171.242733" style="stroke: #000000; stroke-width: 0.8"/>
      </g>
     </g>
    </g>
    <g id="xtick_4">
     <g id="line2d_7">
      <path d="M 266.674537 171.242733 
L 266.674537 9.546325 
" clip-path="url(#pc0cd5e9ea9)" style="fill: none; stroke: #b0b0b0; stroke-opacity: 0.3; stroke-width: 0.8; stroke-linecap: square"/>
     </g>
     <g id="line2d_8">
      <g>
       <use xlink:href="#m9cd64e0dab" x="266.674537" y="171.242733" style="stroke: #000000; stroke-width: 0.8"/>
      </g>
     </g>
    </g>
    <g id="xtick_5">
     <g id="line2d_9">
      <path d="M 326.537618 171.242733 
L 326.537618 9.546325 
" clip-path="url(#pc0cd5e9ea9)" style="fill: none; stroke: #b0b0b0; stroke-opacity: 0.3; stroke-width: 0.8; stroke-linecap: square"/>
     </g>
     <g id="line2d_10">
      <g>
       <use xlink:href="#m9cd64e0dab" x="326.537618" y="171.242733" style="stroke: #000000; stroke-width: 0.8"/>
      </g>
     </g>
    </g>
    <g id="xtick_6">
     <g id="line2d_11">
      <path d="M 386.400699 171.242733 
L 386.400699 9.546325 
" clip-path="url(#pc0cd5e9ea9)" style="fill: none; stroke: #b0b0b0; stroke-opacity: 0.3; stroke-width: 0.8; stroke-linecap: square"/>
     </g>
     <g id="line2d_12">
      <g>
       <use xlink:href="#m9cd64e0dab" x="386.400699" y="171.242733" style="stroke: #000000; stroke-width: 0.8"/>
      </g>
     </g>
    </g>
    <g id="xtick_7">
     <g id="line2d_13">
      <path d="M 446.26378 171.242733 
L 446.26378 9.546325 
" clip-path="url(#pc0cd5e9ea9)" style="fill: none; stroke: #b0b0b0; stroke-opacity: 0.3; stroke-width: 0.8; stroke-linecap: square"/>
     </g>
     <g id="line2d_14">
      <g>
       <use xlink:href="#m9cd64e0dab" x="446.26378" y="171.242733" style="stroke: #000000; stroke-width: 0.8"/>
      </g>
     </g>
    </g>
   </g>
   <g id="matplotlib.axis_2">
    <g id="ytick_1">
     <g id="line2d_15">
      <path d="M 69.725 166.949096 
L 451.651458 166.949096 
" clip-path="url(#pc0cd5e9ea9)" style="fill: none; stroke: #b0b0b0; stroke-opacity: 0.3; stroke-width: 0.8; stroke-linecap: square"/>
     </g>
     <g id="line2d_16">
      <defs>
       <path id="mbecc6cdad4" d="M 0 0 
L -3.5 0 
" style="stroke: #000000; stroke-width: 0.8"/>
      </defs>
      <g>
       <use xlink:href="#mbecc6cdad4" x="69.725" y="166.949096" style="stroke: #000000; stroke-width: 0.8"/>
      </g>
     </g>
     <g id="text_1">
      <!-- 0.000 -->
      <g transform="translate(34.096875 170.748314) scale(0.1 -0.1)">
       <defs>
        <path id="DejaVuSans-30" d="M 2034 4250 
Q 1547 4250 1301 3770 
Q 1056 3291 1056 2328 
Q 1056 1369 1301 889 
Q 1547 409 2034 409 
Q 2525 409 2770 889 
Q 3016 1369 3016 2328 
Q 3016 3291 2770 3770 
Q 2525 4250 2034 4250 
z
M 2034 4750 
Q 2819 4750 3233 4129 
Q 3647 3509 3647 2328 
Q 3647 1150 3233 529 
Q 2819 -91 2034 -91 
Q 1250 -91 836 529 
Q 422 1150 422 2328 
Q 422 3509 836 4129 
Q 1250 4750 2034 4750 
z
" transform="scale(0.015625)"/>
        <path id="DejaVuSans-2e" d="M 684 794 
L 1344 794 
L 1344 0 
L 684 0 
L 684 794 
z
" transform="scale(0.015625)"/>
       </defs>
       <use xlink:href="#DejaVuSans-30"/>
       <use xlink:href="#DejaVuSans-2e" transform="translate(63.623047 0)"/>
       <use xlink:href="#DejaVuSans-30" transform="translate(95.410156 0)"/>
       <use xlink:href="#DejaVuSans-30" transform="translate(159.033203 0)"/>
       <use xlink:href="#DejaVuSans-30" transform="translate(222.65625 0)"/>
      </g>
     </g>
    </g>
    <g id="ytick_2">
     <g id="line2d_17">
      <path d="M 69.725 140.957449 
L 451.651458 140.957449 
" clip-path="url(#pc0cd5e9ea9)" style="fill: none; stroke: #b0b0b0; stroke-opacity: 0.3; stroke-width: 0.8; stroke-linecap: square"/>
     </g>
     <g id="line2d_18">
      <g>
       <use xlink:href="#mbecc6cdad4" x="69.725" y="140.957449" style="stroke: #000000; stroke-width: 0.8"/>
      </g>
     </g>
     <g id="text_2">
      <!-- 0.002 -->
      <g transform="translate(34.096875 144.756668) scale(0.1 -0.1)">
       <defs>
        <path id="DejaVuSans-32" d="M 1228 531 
L 3431 531 
L 3431 0 
L 469 0 
L 469 531 
Q 828 903 1448 1529 
Q 2069 2156 2228 2338 
Q 2531 2678 2651 2914 
Q 2772 3150 2772 3378 
Q 2772 3750 2511 3984 
Q 2250 4219 1831 4219 
Q 1534 4219 1204 4116 
Q 875 4013 500 3803 
L 500 4441 
Q 881 4594 1212 4672 
Q 1544 4750 1819 4750 
Q 2544 4750 2975 4387 
Q 3406 4025 3406 3419 
Q 3406 3131 3298 2873 
Q 3191 2616 2906 2266 
Q 2828 2175 2409 1742 
Q 1991 1309 1228 531 
z
" transform="scale(0.015625)"/>
       </defs>
       <use xlink:href="#DejaVuSans-30"/>
       <use xlink:href="#DejaVuSans-2e" transform="translate(63.623047 0)"/>
       <use xlink:href="#DejaVuSans-30" transform="translate(95.410156 0)"/>
       <use xlink:href="#DejaVuSans-30" transform="translate(159.033203 0)"/>
       <use xlink:href="#DejaVuSans-32" transform="translate(222.65625 0)"/>
      </g>
     </g>
    </g>
    <g id="ytick_3">
     <g id="line2d_19">
      <path d="M 69.725 114.965803 
L 451.651458 114.965803 
" clip-path="url(#pc0cd5e9ea9)" style="fill: none; stroke: #b0b0b0; stroke-opacity: 0.3; stroke-width: 0.8; stroke-linecap: square"/>
     </g>
     <g id="line2d_20">
      <g>
       <use xlink:href="#mbecc6cdad4" x="69.725" y="114.965803" style="stroke: #000000; stroke-width: 0.8"/>
      </g>
     </g>
     <g id="text_3">
      <!-- 0.004 -->
      <g transform="translate(34.096875 118.765022) scale(0.1 -0.1)">
       <defs>
        <path id="DejaVuSans-34" d="M 2419 4116 
L 825 1625 
L 2419 1625 
L 2419 4116 
z
M 2253 4666 
L 3047 4666 
L 3047 1625 
L 3713 1625 
L 3713 1100 
L 3047 1100 
L 3047 0 
L 2419 0 
L 2419 1100 
L 313 1100 
L 313 1709 
L 2253 4666 
z
" transform="scale(0.015625)"/>
       </defs>
       <use xlink:href="#DejaVuSans-30"/>
       <use xlink:href="#DejaVuSans-2e" transform="translate(63.623047 0)"/>
       <use xlink:href="#DejaVuSans-30" transform="translate(95.410156 0)"/>
       <use xlink:href="#DejaVuSans-30" transform="translate(159.033203 0)"/>
       <use xlink:href="#DejaVuSans-34" transform="translate(222.65625 0)"/>
      </g>
     </g>
    </g>
    <g id="ytick_4">
     <g id="line2d_21">
      <path d="M 69.725 88.974157 
L 451.651458 88.974157 
" clip-path="url(#pc0cd5e9ea9)" style="fill: none; stroke: #b0b0b0; stroke-opacity: 0.3; stroke-width: 0.8; stroke-linecap: square"/>
     </g>
     <g id="line2d_22">
      <g>
       <use xlink:href="#mbecc6cdad4" x="69.725" y="88.974157" style="stroke: #000000; stroke-width: 0.8"/>
      </g>
     </g>
     <g id="text_4">
      <!-- 0.006 -->
      <g transform="translate(34.096875 92.773376) scale(0.1 -0.1)">
       <defs>
        <path id="DejaVuSans-36" d="M 2113 2584 
Q 1688 2584 1439 2293 
Q 1191 2003 1191 1497 
Q 1191 994 1439 701 
Q 1688 409 2113 409 
Q 2538 409 2786 701 
Q 3034 994 3034 1497 
Q 3034 2003 2786 2293 
Q 2538 2584 2113 2584 
z
M 3366 4563 
L 3366 3988 
Q 3128 4100 2886 4159 
Q 2644 4219 2406 4219 
Q 1781 4219 1451 3797 
Q 1122 3375 1075 2522 
Q 1259 2794 1537 2939 
Q 1816 3084 2150 3084 
Q 2853 3084 3261 2657 
Q 3669 2231 3669 1497 
Q 3669 778 3244 343 
Q 2819 -91 2113 -91 
Q 1303 -91 875 529 
Q 447 1150 447 2328 
Q 447 3434 972 4092 
Q 1497 4750 2381 4750 
Q 2619 4750 2861 4703 
Q 3103 4656 3366 4563 
z
" transform="scale(0.015625)"/>
       </defs>
       <use xlink:href="#DejaVuSans-30"/>
       <use xlink:href="#DejaVuSans-2e" transform="translate(63.623047 0)"/>
       <use xlink:href="#DejaVuSans-30" transform="translate(95.410156 0)"/>
       <use xlink:href="#DejaVuSans-30" transform="translate(159.033203 0)"/>
       <use xlink:href="#DejaVuSans-36" transform="translate(222.65625 0)"/>
      </g>
     </g>
    </g>
    <g id="ytick_5">
     <g id="line2d_23">
      <path d="M 69.725 62.982511 
L 451.651458 62.982511 
" clip-path="url(#pc0cd5e9ea9)" style="fill: none; stroke: #b0b0b0; stroke-opacity: 0.3; stroke-width: 0.8; stroke-linecap: square"/>
     </g>
     <g id="line2d_24">
      <g>
       <use xlink:href="#mbecc6cdad4" x="69.725" y="62.982511" style="stroke: #000000; stroke-width: 0.8"/>
      </g>
     </g>
     <g id="text_5">
      <!-- 0.008 -->
      <g transform="translate(34.096875 66.78173) scale(0.1 -0.1)">
       <defs>
        <path id="DejaVuSans-38" d="M 2034 2216 
Q 1584 2216 1326 1975 
Q 1069 1734 1069 1313 
Q 1069 891 1326 650 
Q 1584 409 2034 409 
Q 2484 409 2743 651 
Q 3003 894 3003 1313 
Q 3003 1734 2745 1975 
Q 2488 2216 2034 2216 
z
M 1403 2484 
Q 997 2584 770 2862 
Q 544 3141 544 3541 
Q 544 4100 942 4425 
Q 1341 4750 2034 4750 
Q 2731 4750 3128 4425 
Q 3525 4100 3525 3541 
Q 3525 3141 3298 2862 
Q 3072 2584 2669 2484 
Q 3125 2378 3379 2068 
Q 3634 1759 3634 1313 
Q 3634 634 3220 271 
Q 2806 -91 2034 -91 
Q 1263 -91 848 271 
Q 434 634 434 1313 
Q 434 1759 690 2068 
Q 947 2378 1403 2484 
z
M 1172 3481 
Q 1172 3119 1398 2916 
Q 1625 2713 2034 2713 
Q 2441 2713 2670 2916 
Q 2900 3119 2900 3481 
Q 2900 3844 2670 4047 
Q 2441 4250 2034 4250 
Q 1625 4250 1398 4047 
Q 1172 3844 1172 3481 
z
" transform="scale(0.015625)"/>
       </defs>
       <use xlink:href="#DejaVuSans-30"/>
       <use xlink:href="#DejaVuSans-2e" transform="translate(63.623047 0)"/>
       <use xlink:href="#DejaVuSans-30" transform="translate(95.410156 0)"/>
       <use xlink:href="#DejaVuSans-30" transform="translate(159.033203 0)"/>
       <use xlink:href="#DejaVuSans-38" transform="translate(222.65625 0)"/>
      </g>
     </g>
    </g>
    <g id="ytick_6">
     <g id="line2d_25">
      <path d="M 69.725 36.990865 
L 451.651458 36.990865 
" clip-path="url(#pc0cd5e9ea9)" style="fill: none; stroke: #b0b0b0; stroke-opacity: 0.3; stroke-width: 0.8; stroke-linecap: square"/>
     </g>
     <g id="line2d_26">
      <g>
       <use xlink:href="#mbecc6cdad4" x="69.725" y="36.990865" style="stroke: #000000; stroke-width: 0.8"/>
      </g>
     </g>
     <g id="text_6">
      <!-- 0.010 -->
      <g transform="translate(34.096875 40.790084) scale(0.1 -0.1)">
       <defs>
        <path id="DejaVuSans-31" d="M 794 531 
L 1825 531 
L 1825 4091 
L 703 3866 
L 703 4441 
L 1819 4666 
L 2450 4666 
L 2450 531 
L 3481 531 
L 3481 0 
L 794 0 
L 794 531 
z
" transform="scale(0.015625)"/>
       </defs>
       <use xlink:href="#DejaVuSans-30"/>
       <use xlink:href="#DejaVuSans-2e" transform="translate(63.623047 0)"/>
       <use xlink:href="#DejaVuSans-30" transform="translate(95.410156 0)"/>
       <use xlink:href="#DejaVuSans-31" transform="translate(159.033203 0)"/>
       <use xlink:href="#DejaVuSans-30" transform="translate(222.65625 0)"/>
      </g>
     </g>
    </g>
    <g id="ytick_7">
     <g id="line2d_27">
      <path d="M 69.725 10.999219 
L 451.651458 10.999219 
" clip-path="url(#pc0cd5e9ea9)" style="fill: none; stroke: #b0b0b0; stroke-opacity: 0.3; stroke-width: 0.8; stroke-linecap: square"/>
     </g>
     <g id="line2d_28">
      <g>
       <use xlink:href="#mbecc6cdad4" x="69.725" y="10.999219" style="stroke: #000000; stroke-width: 0.8"/>
      </g>
     </g>
     <g id="text_7">
      <!-- 0.012 -->
      <g transform="translate(34.096875 14.798437) scale(0.1 -0.1)">
       <use xlink:href="#DejaVuSans-30"/>
       <use xlink:href="#DejaVuSans-2e" transform="translate(63.623047 0)"/>
       <use xlink:href="#DejaVuSans-30" transform="translate(95.410156 0)"/>
       <use xlink:href="#DejaVuSans-31" transform="translate(159.033203 0)"/>
       <use xlink:href="#DejaVuSans-32" transform="translate(222.65625 0)"/>
      </g>
     </g>
    </g>
    <g id="text_8">
     <!-- KL divergence -->
     <g transform="translate(26.977344 143.594138) rotate(-90) scale(0.15 -0.15)">
      <defs>
       <path id="DejaVuSans-4b" d="M 628 4666 
L 1259 4666 
L 1259 2694 
L 3353 4666 
L 4166 4666 
L 1850 2491 
L 4331 0 
L 3500 0 
L 1259 2247 
L 1259 0 
L 628 0 
L 628 4666 
z
" transform="scale(0.015625)"/>
       <path id="DejaVuSans-4c" d="M 628 4666 
L 1259 4666 
L 1259 531 
L 3531 531 
L 3531 0 
L 628 0 
L 628 4666 
z
" transform="scale(0.015625)"/>
       <path id="DejaVuSans-20" transform="scale(0.015625)"/>
       <path id="DejaVuSans-64" d="M 2906 2969 
L 2906 4863 
L 3481 4863 
L 3481 0 
L 2906 0 
L 2906 525 
Q 2725 213 2448 61 
Q 2172 -91 1784 -91 
Q 1150 -91 751 415 
Q 353 922 353 1747 
Q 353 2572 751 3078 
Q 1150 3584 1784 3584 
Q 2172 3584 2448 3432 
Q 2725 3281 2906 2969 
z
M 947 1747 
Q 947 1113 1208 752 
Q 1469 391 1925 391 
Q 2381 391 2643 752 
Q 2906 1113 2906 1747 
Q 2906 2381 2643 2742 
Q 2381 3103 1925 3103 
Q 1469 3103 1208 2742 
Q 947 2381 947 1747 
z
" transform="scale(0.015625)"/>
       <path id="DejaVuSans-69" d="M 603 3500 
L 1178 3500 
L 1178 0 
L 603 0 
L 603 3500 
z
M 603 4863 
L 1178 4863 
L 1178 4134 
L 603 4134 
L 603 4863 
z
" transform="scale(0.015625)"/>
       <path id="DejaVuSans-76" d="M 191 3500 
L 800 3500 
L 1894 563 
L 2988 3500 
L 3597 3500 
L 2284 0 
L 1503 0 
L 191 3500 
z
" transform="scale(0.015625)"/>
       <path id="DejaVuSans-65" d="M 3597 1894 
L 3597 1613 
L 953 1613 
Q 991 1019 1311 708 
Q 1631 397 2203 397 
Q 2534 397 2845 478 
Q 3156 559 3463 722 
L 3463 178 
Q 3153 47 2828 -22 
Q 2503 -91 2169 -91 
Q 1331 -91 842 396 
Q 353 884 353 1716 
Q 353 2575 817 3079 
Q 1281 3584 2069 3584 
Q 2775 3584 3186 3129 
Q 3597 2675 3597 1894 
z
M 3022 2063 
Q 3016 2534 2758 2815 
Q 2500 3097 2075 3097 
Q 1594 3097 1305 2825 
Q 1016 2553 972 2059 
L 3022 2063 
z
" transform="scale(0.015625)"/>
       <path id="DejaVuSans-72" d="M 2631 2963 
Q 2534 3019 2420 3045 
Q 2306 3072 2169 3072 
Q 1681 3072 1420 2755 
Q 1159 2438 1159 1844 
L 1159 0 
L 581 0 
L 581 3500 
L 1159 3500 
L 1159 2956 
Q 1341 3275 1631 3429 
Q 1922 3584 2338 3584 
Q 2397 3584 2469 3576 
Q 2541 3569 2628 3553 
L 2631 2963 
z
" transform="scale(0.015625)"/>
       <path id="DejaVuSans-67" d="M 2906 1791 
Q 2906 2416 2648 2759 
Q 2391 3103 1925 3103 
Q 1463 3103 1205 2759 
Q 947 2416 947 1791 
Q 947 1169 1205 825 
Q 1463 481 1925 481 
Q 2391 481 2648 825 
Q 2906 1169 2906 1791 
z
M 3481 434 
Q 3481 -459 3084 -895 
Q 2688 -1331 1869 -1331 
Q 1566 -1331 1297 -1286 
Q 1028 -1241 775 -1147 
L 775 -588 
Q 1028 -725 1275 -790 
Q 1522 -856 1778 -856 
Q 2344 -856 2625 -561 
Q 2906 -266 2906 331 
L 2906 616 
Q 2728 306 2450 153 
Q 2172 0 1784 0 
Q 1141 0 747 490 
Q 353 981 353 1791 
Q 353 2603 747 3093 
Q 1141 3584 1784 3584 
Q 2172 3584 2450 3431 
Q 2728 3278 2906 2969 
L 2906 3500 
L 3481 3500 
L 3481 434 
z
" transform="scale(0.015625)"/>
       <path id="DejaVuSans-6e" d="M 3513 2113 
L 3513 0 
L 2938 0 
L 2938 2094 
Q 2938 2591 2744 2837 
Q 2550 3084 2163 3084 
Q 1697 3084 1428 2787 
Q 1159 2491 1159 1978 
L 1159 0 
L 581 0 
L 581 3500 
L 1159 3500 
L 1159 2956 
Q 1366 3272 1645 3428 
Q 1925 3584 2291 3584 
Q 2894 3584 3203 3211 
Q 3513 2838 3513 2113 
z
" transform="scale(0.015625)"/>
       <path id="DejaVuSans-63" d="M 3122 3366 
L 3122 2828 
Q 2878 2963 2633 3030 
Q 2388 3097 2138 3097 
Q 1578 3097 1268 2742 
Q 959 2388 959 1747 
Q 959 1106 1268 751 
Q 1578 397 2138 397 
Q 2388 397 2633 464 
Q 2878 531 3122 666 
L 3122 134 
Q 2881 22 2623 -34 
Q 2366 -91 2075 -91 
Q 1284 -91 818 406 
Q 353 903 353 1747 
Q 353 2603 823 3093 
Q 1294 3584 2113 3584 
Q 2378 3584 2631 3529 
Q 2884 3475 3122 3366 
z
" transform="scale(0.015625)"/>
      </defs>
      <use xlink:href="#DejaVuSans-4b"/>
      <use xlink:href="#DejaVuSans-4c" transform="translate(65.576172 0)"/>
      <use xlink:href="#DejaVuSans-20" transform="translate(121.289062 0)"/>
      <use xlink:href="#DejaVuSans-64" transform="translate(153.076172 0)"/>
      <use xlink:href="#DejaVuSans-69" transform="translate(216.552734 0)"/>
      <use xlink:href="#DejaVuSans-76" transform="translate(244.335938 0)"/>
      <use xlink:href="#DejaVuSans-65" transform="translate(303.515625 0)"/>
      <use xlink:href="#DejaVuSans-72" transform="translate(365.039062 0)"/>
      <use xlink:href="#DejaVuSans-67" transform="translate(404.402344 0)"/>
      <use xlink:href="#DejaVuSans-65" transform="translate(467.878906 0)"/>
      <use xlink:href="#DejaVuSans-6e" transform="translate(529.402344 0)"/>
      <use xlink:href="#DejaVuSans-63" transform="translate(592.78125 0)"/>
      <use xlink:href="#DejaVuSans-65" transform="translate(647.761719 0)"/>
     </g>
    </g>
   </g>
   <g id="line2d_29">
    <path d="M 87.085294 55.294751 
L 99.05791 123.854478 
L 111.030526 136.725168 
L 123.003142 140.419537 
L 134.975758 142.574753 
L 146.948375 143.888152 
L 158.920991 151.22759 
L 170.893607 152.259641 
L 182.866223 152.844285 
L 194.83884 153.307218 
L 206.811456 153.568748 
L 218.784072 153.733555 
L 230.756688 158.278655 
L 242.729304 158.583491 
L 254.701921 158.74727 
L 266.674537 158.793426 
L 278.647153 158.741419 
L 290.619769 158.725163 
L 302.592386 161.590488 
L 314.565002 161.714297 
L 326.537618 161.734981 
L 338.510234 161.63701 
L 350.482851 161.501868 
L 362.455467 161.423507 
L 374.428083 163.397625 
L 386.400699 163.459612 
L 398.373315 163.386652 
L 410.345932 163.242063 
L 422.318548 163.131799 
L 434.291164 162.971393 
" clip-path="url(#pc0cd5e9ea9)" style="fill: none; stroke: #1f77b4; stroke-width: 2; stroke-linecap: square"/>
   </g>
   <g id="line2d_30">
    <path d="M 87.085294 55.294751 
L 99.05791 123.745705 
L 111.030526 136.597974 
L 123.003142 140.265938 
L 134.975758 142.405 
L 146.948375 143.71408 
L 158.920991 151.088888 
L 170.893607 152.116682 
L 182.866223 152.700865 
L 194.83884 153.160691 
L 206.811456 153.422704 
L 218.784072 153.590027 
L 230.756688 158.167972 
L 242.729304 158.47621 
L 254.701921 158.644056 
L 266.674537 158.686306 
L 278.647153 158.636889 
L 290.619769 158.618389 
L 302.592386 161.511061 
L 314.565002 161.633839 
L 326.537618 161.653376 
L 338.510234 161.5562 
L 350.482851 161.41708 
L 362.455467 161.33768 
L 374.428083 163.339754 
L 386.400699 163.400521 
L 398.373315 163.330533 
L 410.345932 163.181028 
L 422.318548 163.066407 
L 434.291164 162.909594 
" clip-path="url(#pc0cd5e9ea9)" style="fill: none; stroke-dasharray: 7.4,3.2; stroke-dashoffset: 0; stroke: #ff7f0e; stroke-width: 2"/>
   </g>
   <g id="patch_3">
    <path d="M 69.725 171.242733 
L 69.725 9.546325 
" style="fill: none; stroke: #000000; stroke-width: 0.8; stroke-linejoin: miter; stroke-linecap: square"/>
   </g>
   <g id="patch_4">
    <path d="M 451.651458 171.242733 
L 451.651458 9.546325 
" style="fill: none; stroke: #000000; stroke-width: 0.8; stroke-linejoin: miter; stroke-linecap: square"/>
   </g>
   <g id="patch_5">
    <path d="M 69.725 171.242733 
L 451.651458 171.242733 
" style="fill: none; stroke: #000000; stroke-width: 0.8; stroke-linejoin: miter; stroke-linecap: square"/>
   </g>
   <g id="patch_6">
    <path d="M 69.725 9.546325 
L 451.651458 9.546325 
" style="fill: none; stroke: #000000; stroke-width: 0.8; stroke-linejoin: miter; stroke-linecap: square"/>
   </g>
   <g id="legend_1">
    <g id="patch_7">
     <path d="M 351.787395 46.902575 
L 444.651458 46.902575 
Q 446.651458 46.902575 446.651458 44.902575 
L 446.651458 16.546325 
Q 446.651458 14.546325 444.651458 14.546325 
L 351.787395 14.546325 
Q 349.787395 14.546325 349.787395 16.546325 
L 349.787395 44.902575 
Q 349.787395 46.902575 351.787395 46.902575 
z
" style="fill: #ffffff; opacity: 0.8; stroke: #cccccc; stroke-linejoin: miter"/>
    </g>
    <g id="line2d_31">
     <path d="M 353.787395 22.644762 
L 363.787395 22.644762 
L 373.787395 22.644762 
" style="fill: none; stroke: #1f77b4; stroke-width: 2; stroke-linecap: square"/>
    </g>
    <g id="text_9">
     <!-- control -->
     <g transform="translate(381.787395 26.144762) scale(0.1 -0.1)">
      <defs>
       <path id="DejaVuSans-6f" d="M 1959 3097 
Q 1497 3097 1228 2736 
Q 959 2375 959 1747 
Q 959 1119 1226 758 
Q 1494 397 1959 397 
Q 2419 397 2687 759 
Q 2956 1122 2956 1747 
Q 2956 2369 2687 2733 
Q 2419 3097 1959 3097 
z
M 1959 3584 
Q 2709 3584 3137 3096 
Q 3566 2609 3566 1747 
Q 3566 888 3137 398 
Q 2709 -91 1959 -91 
Q 1206 -91 779 398 
Q 353 888 353 1747 
Q 353 2609 779 3096 
Q 1206 3584 1959 3584 
z
" transform="scale(0.015625)"/>
       <path id="DejaVuSans-74" d="M 1172 4494 
L 1172 3500 
L 2356 3500 
L 2356 3053 
L 1172 3053 
L 1172 1153 
Q 1172 725 1289 603 
Q 1406 481 1766 481 
L 2356 481 
L 2356 0 
L 1766 0 
Q 1100 0 847 248 
Q 594 497 594 1153 
L 594 3053 
L 172 3053 
L 172 3500 
L 594 3500 
L 594 4494 
L 1172 4494 
z
" transform="scale(0.015625)"/>
       <path id="DejaVuSans-6c" d="M 603 4863 
L 1178 4863 
L 1178 0 
L 603 0 
L 603 4863 
z
" transform="scale(0.015625)"/>
      </defs>
      <use xlink:href="#DejaVuSans-63"/>
      <use xlink:href="#DejaVuSans-6f" transform="translate(54.980469 0)"/>
      <use xlink:href="#DejaVuSans-6e" transform="translate(116.162109 0)"/>
      <use xlink:href="#DejaVuSans-74" transform="translate(179.541016 0)"/>
      <use xlink:href="#DejaVuSans-72" transform="translate(218.75 0)"/>
      <use xlink:href="#DejaVuSans-6f" transform="translate(257.613281 0)"/>
      <use xlink:href="#DejaVuSans-6c" transform="translate(318.794922 0)"/>
     </g>
    </g>
    <g id="line2d_32">
     <path d="M 353.787395 37.322887 
L 363.787395 37.322887 
L 373.787395 37.322887 
" style="fill: none; stroke-dasharray: 7.4,3.2; stroke-dashoffset: 0; stroke: #ff7f0e; stroke-width: 2"/>
    </g>
    <g id="text_10">
     <!-- intervention -->
     <g transform="translate(381.787395 40.822887) scale(0.1 -0.1)">
      <use xlink:href="#DejaVuSans-69"/>
      <use xlink:href="#DejaVuSans-6e" transform="translate(27.783203 0)"/>
      <use xlink:href="#DejaVuSans-74" transform="translate(91.162109 0)"/>
      <use xlink:href="#DejaVuSans-65" transform="translate(130.371094 0)"/>
      <use xlink:href="#DejaVuSans-72" transform="translate(191.894531 0)"/>
      <use xlink:href="#DejaVuSans-76" transform="translate(233.007812 0)"/>
      <use xlink:href="#DejaVuSans-65" transform="translate(292.1875 0)"/>
      <use xlink:href="#DejaVuSans-6e" transform="translate(353.710938 0)"/>
      <use xlink:href="#DejaVuSans-74" transform="translate(417.089844 0)"/>
      <use xlink:href="#DejaVuSans-69" transform="translate(456.298828 0)"/>
      <use xlink:href="#DejaVuSans-6f" transform="translate(484.082031 0)"/>
      <use xlink:href="#DejaVuSans-6e" transform="translate(545.263672 0)"/>
     </g>
    </g>
   </g>
  </g>
  <g id="axes_2">
   <g id="patch_8">
    <path d="M 69.725 349.854529 
L 451.651458 349.854529 
L 451.651458 188.158121 
L 69.725 188.158121 
z
" style="fill: #ffffff"/>
   </g>
   <g id="FillBetweenPolyCollection_3">
    <defs>
     <path id="me0f103e84b" d="M 87.085294 -241.837663 
L 87.085294 -240.404763 
L 99.05791 -239.904186 
L 111.030526 -239.385911 
L 123.003142 -238.812391 
L 134.975758 -238.353264 
L 146.948375 -237.78723 
L 158.920991 -237.265045 
L 170.893607 -236.743439 
L 182.866223 -236.202534 
L 194.83884 -235.658361 
L 206.811456 -235.19312 
L 218.784072 -234.705875 
L 230.756688 -234.178391 
L 242.729304 -233.694308 
L 254.701921 -233.292282 
L 266.674537 -232.813176 
L 278.647153 -232.377718 
L 290.619769 -232.033032 
L 302.592386 -231.586595 
L 314.565002 -231.202967 
L 326.537618 -230.882511 
L 338.510234 -230.57314 
L 350.482851 -230.264798 
L 362.455467 -229.9264 
L 374.428083 -229.638545 
L 386.400699 -229.340386 
L 398.373315 -229.09105 
L 410.345932 -228.888978 
L 422.318548 -228.609166 
L 434.291164 -228.356945 
L 434.291164 -230.519584 
L 434.291164 -230.519584 
L 422.318548 -230.776155 
L 410.345932 -231.052892 
L 398.373315 -231.281444 
L 386.400699 -231.500894 
L 374.428083 -231.669592 
L 362.455467 -232.072679 
L 350.482851 -232.341967 
L 338.510234 -232.720055 
L 326.537618 -233.044294 
L 314.565002 -233.252473 
L 302.592386 -233.688358 
L 290.619769 -233.952734 
L 278.647153 -234.425875 
L 266.674537 -234.815325 
L 254.701921 -235.263719 
L 242.729304 -235.579078 
L 230.756688 -236.040607 
L 218.784072 -236.548832 
L 206.811456 -236.989724 
L 194.83884 -237.494879 
L 182.866223 -237.964865 
L 170.893607 -238.391816 
L 158.920991 -238.868793 
L 146.948375 -239.391134 
L 134.975758 -239.961124 
L 123.003142 -240.398139 
L 111.030526 -240.830887 
L 99.05791 -241.308669 
L 87.085294 -241.837663 
z
" style="stroke: #1f77b4; stroke-opacity: 0.25"/>
    </defs>
    <g clip-path="url(#p5d719bc40f)">
     <use xlink:href="#me0f103e84b" x="0" y="570.861637" style="fill: #1f77b4; fill-opacity: 0.25; stroke: #1f77b4; stroke-opacity: 0.25"/>
    </g>
   </g>
   <g id="FillBetweenPolyCollection_4">
    <defs>
     <path id="madef87a395" d="M 87.085294 -241.79731 
L 87.085294 -240.417213 
L 99.05791 -241.824487 
L 111.030526 -243.406161 
L 123.003142 -245.030531 
L 134.975758 -246.661621 
L 146.948375 -248.160354 
L 158.920991 -249.562763 
L 170.893607 -250.868023 
L 182.866223 -252.31186 
L 194.83884 -253.707969 
L 206.811456 -254.865528 
L 218.784072 -256.652945 
L 230.756688 -258.280294 
L 242.729304 -259.924709 
L 254.701921 -261.695954 
L 266.674537 -263.876639 
L 278.647153 -265.743954 
L 290.619769 -267.75275 
L 302.592386 -269.616734 
L 314.565002 -271.658668 
L 326.537618 -273.544198 
L 338.510234 -276.299256 
L 350.482851 -278.50618 
L 362.455467 -281.442601 
L 374.428083 -284.489199 
L 386.400699 -287.317564 
L 398.373315 -290.059476 
L 410.345932 -292.610064 
L 422.318548 -295.267961 
L 434.291164 -298.330704 
L 434.291164 -375.35368 
L 434.291164 -375.35368 
L 422.318548 -367.779918 
L 410.345932 -360.62523 
L 398.373315 -354.51204 
L 386.400699 -347.483203 
L 374.428083 -339.933902 
L 362.455467 -333.341282 
L 350.482851 -327.67458 
L 338.510234 -321.94215 
L 326.537618 -315.839827 
L 314.565002 -310.216894 
L 302.592386 -304.589793 
L 290.619769 -298.391652 
L 278.647153 -293.690102 
L 266.674537 -289.26791 
L 254.701921 -284.748323 
L 242.729304 -280.59902 
L 230.756688 -276.556993 
L 218.784072 -272.570722 
L 206.811456 -269.390453 
L 194.83884 -266.141784 
L 182.866223 -263.577034 
L 170.893607 -261.211814 
L 158.920991 -258.506287 
L 146.948375 -255.765053 
L 134.975758 -253.090631 
L 123.003142 -249.923269 
L 111.030526 -246.750544 
L 99.05791 -244.005164 
L 87.085294 -241.79731 
z
" style="stroke: #ff7f0e; stroke-opacity: 0.25"/>
    </defs>
    <g clip-path="url(#p5d719bc40f)">
     <use xlink:href="#madef87a395" x="0" y="570.861637" style="fill: #ff7f0e; fill-opacity: 0.25; stroke: #ff7f0e; stroke-opacity: 0.25"/>
    </g>
   </g>
   <g id="matplotlib.axis_3">
    <g id="xtick_8">
     <g id="line2d_33">
      <path d="M 87.085294 349.854529 
L 87.085294 188.158121 
" clip-path="url(#p5d719bc40f)" style="fill: none; stroke: #b0b0b0; stroke-opacity: 0.3; stroke-width: 0.8; stroke-linecap: square"/>
     </g>
     <g id="line2d_34">
      <g>
       <use xlink:href="#m9cd64e0dab" x="87.085294" y="349.854529" style="stroke: #000000; stroke-width: 0.8"/>
      </g>
     </g>
    </g>
    <g id="xtick_9">
     <g id="line2d_35">
      <path d="M 146.948375 349.854529 
L 146.948375 188.158121 
" clip-path="url(#p5d719bc40f)" style="fill: none; stroke: #b0b0b0; stroke-opacity: 0.3; stroke-width: 0.8; stroke-linecap: square"/>
     </g>
     <g id="line2d_36">
      <g>
       <use xlink:href="#m9cd64e0dab" x="146.948375" y="349.854529" style="stroke: #000000; stroke-width: 0.8"/>
      </g>
     </g>
    </g>
    <g id="xtick_10">
     <g id="line2d_37">
      <path d="M 206.811456 349.854529 
L 206.811456 188.158121 
" clip-path="url(#p5d719bc40f)" style="fill: none; stroke: #b0b0b0; stroke-opacity: 0.3; stroke-width: 0.8; stroke-linecap: square"/>
     </g>
     <g id="line2d_38">
      <g>
       <use xlink:href="#m9cd64e0dab" x="206.811456" y="349.854529" style="stroke: #000000; stroke-width: 0.8"/>
      </g>
     </g>
    </g>
    <g id="xtick_11">
     <g id="line2d_39">
      <path d="M 266.674537 349.854529 
L 266.674537 188.158121 
" clip-path="url(#p5d719bc40f)" style="fill: none; stroke: #b0b0b0; stroke-opacity: 0.3; stroke-width: 0.8; stroke-linecap: square"/>
     </g>
     <g id="line2d_40">
      <g>
       <use xlink:href="#m9cd64e0dab" x="266.674537" y="349.854529" style="stroke: #000000; stroke-width: 0.8"/>
      </g>
     </g>
    </g>
    <g id="xtick_12">
     <g id="line2d_41">
      <path d="M 326.537618 349.854529 
L 326.537618 188.158121 
" clip-path="url(#p5d719bc40f)" style="fill: none; stroke: #b0b0b0; stroke-opacity: 0.3; stroke-width: 0.8; stroke-linecap: square"/>
     </g>
     <g id="line2d_42">
      <g>
       <use xlink:href="#m9cd64e0dab" x="326.537618" y="349.854529" style="stroke: #000000; stroke-width: 0.8"/>
      </g>
     </g>
    </g>
    <g id="xtick_13">
     <g id="line2d_43">
      <path d="M 386.400699 349.854529 
L 386.400699 188.158121 
" clip-path="url(#p5d719bc40f)" style="fill: none; stroke: #b0b0b0; stroke-opacity: 0.3; stroke-width: 0.8; stroke-linecap: square"/>
     </g>
     <g id="line2d_44">
      <g>
       <use xlink:href="#m9cd64e0dab" x="386.400699" y="349.854529" style="stroke: #000000; stroke-width: 0.8"/>
      </g>
     </g>
    </g>
    <g id="xtick_14">
     <g id="line2d_45">
      <path d="M 446.26378 349.854529 
L 446.26378 188.158121 
" clip-path="url(#p5d719bc40f)" style="fill: none; stroke: #b0b0b0; stroke-opacity: 0.3; stroke-width: 0.8; stroke-linecap: square"/>
     </g>
     <g id="line2d_46">
      <g>
       <use xlink:href="#m9cd64e0dab" x="446.26378" y="349.854529" style="stroke: #000000; stroke-width: 0.8"/>
      </g>
     </g>
    </g>
   </g>
   <g id="matplotlib.axis_4">
    <g id="ytick_8">
     <g id="line2d_47">
      <path d="M 69.725 335.514791 
L 451.651458 335.514791 
" clip-path="url(#p5d719bc40f)" style="fill: none; stroke: #b0b0b0; stroke-opacity: 0.3; stroke-width: 0.8; stroke-linecap: square"/>
     </g>
     <g id="line2d_48">
      <g>
       <use xlink:href="#mbecc6cdad4" x="69.725" y="335.514791" style="stroke: #000000; stroke-width: 0.8"/>
      </g>
     </g>
     <g id="text_11">
      <!-- 2 -->
      <g transform="translate(56.3625 339.31401) scale(0.1 -0.1)">
       <use xlink:href="#DejaVuSans-32"/>
      </g>
     </g>
    </g>
    <g id="ytick_9">
     <g id="line2d_49">
      <path d="M 69.725 306.376801 
L 451.651458 306.376801 
" clip-path="url(#p5d719bc40f)" style="fill: none; stroke: #b0b0b0; stroke-opacity: 0.3; stroke-width: 0.8; stroke-linecap: square"/>
     </g>
     <g id="line2d_50">
      <g>
       <use xlink:href="#mbecc6cdad4" x="69.725" y="306.376801" style="stroke: #000000; stroke-width: 0.8"/>
      </g>
     </g>
     <g id="text_12">
      <!-- 4 -->
      <g transform="translate(56.3625 310.17602) scale(0.1 -0.1)">
       <use xlink:href="#DejaVuSans-34"/>
      </g>
     </g>
    </g>
    <g id="ytick_10">
     <g id="line2d_51">
      <path d="M 69.725 277.238811 
L 451.651458 277.238811 
" clip-path="url(#p5d719bc40f)" style="fill: none; stroke: #b0b0b0; stroke-opacity: 0.3; stroke-width: 0.8; stroke-linecap: square"/>
     </g>
     <g id="line2d_52">
      <g>
       <use xlink:href="#mbecc6cdad4" x="69.725" y="277.238811" style="stroke: #000000; stroke-width: 0.8"/>
      </g>
     </g>
     <g id="text_13">
      <!-- 6 -->
      <g transform="translate(56.3625 281.03803) scale(0.1 -0.1)">
       <use xlink:href="#DejaVuSans-36"/>
      </g>
     </g>
    </g>
    <g id="ytick_11">
     <g id="line2d_53">
      <path d="M 69.725 248.100822 
L 451.651458 248.100822 
" clip-path="url(#p5d719bc40f)" style="fill: none; stroke: #b0b0b0; stroke-opacity: 0.3; stroke-width: 0.8; stroke-linecap: square"/>
     </g>
     <g id="line2d_54">
      <g>
       <use xlink:href="#mbecc6cdad4" x="69.725" y="248.100822" style="stroke: #000000; stroke-width: 0.8"/>
      </g>
     </g>
     <g id="text_14">
      <!-- 8 -->
      <g transform="translate(56.3625 251.90004) scale(0.1 -0.1)">
       <use xlink:href="#DejaVuSans-38"/>
      </g>
     </g>
    </g>
    <g id="ytick_12">
     <g id="line2d_55">
      <path d="M 69.725 218.962832 
L 451.651458 218.962832 
" clip-path="url(#p5d719bc40f)" style="fill: none; stroke: #b0b0b0; stroke-opacity: 0.3; stroke-width: 0.8; stroke-linecap: square"/>
     </g>
     <g id="line2d_56">
      <g>
       <use xlink:href="#mbecc6cdad4" x="69.725" y="218.962832" style="stroke: #000000; stroke-width: 0.8"/>
      </g>
     </g>
     <g id="text_15">
      <!-- 10 -->
      <g transform="translate(50 222.762051) scale(0.1 -0.1)">
       <use xlink:href="#DejaVuSans-31"/>
       <use xlink:href="#DejaVuSans-30" transform="translate(63.623047 0)"/>
      </g>
     </g>
    </g>
    <g id="ytick_13">
     <g id="line2d_57">
      <path d="M 69.725 189.824842 
L 451.651458 189.824842 
" clip-path="url(#p5d719bc40f)" style="fill: none; stroke: #b0b0b0; stroke-opacity: 0.3; stroke-width: 0.8; stroke-linecap: square"/>
     </g>
     <g id="line2d_58">
      <g>
       <use xlink:href="#mbecc6cdad4" x="69.725" y="189.824842" style="stroke: #000000; stroke-width: 0.8"/>
      </g>
     </g>
     <g id="text_16">
      <!-- 12 -->
      <g transform="translate(50 193.624061) scale(0.1 -0.1)">
       <use xlink:href="#DejaVuSans-31"/>
       <use xlink:href="#DejaVuSans-32" transform="translate(63.623047 0)"/>
      </g>
     </g>
    </g>
    <g id="text_17">
     <!-- Cross-entropy -->
     <g transform="translate(42.880469 321.278981) rotate(-90) scale(0.15 -0.15)">
      <defs>
       <path id="DejaVuSans-43" d="M 4122 4306 
L 4122 3641 
Q 3803 3938 3442 4084 
Q 3081 4231 2675 4231 
Q 1875 4231 1450 3742 
Q 1025 3253 1025 2328 
Q 1025 1406 1450 917 
Q 1875 428 2675 428 
Q 3081 428 3442 575 
Q 3803 722 4122 1019 
L 4122 359 
Q 3791 134 3420 21 
Q 3050 -91 2638 -91 
Q 1578 -91 968 557 
Q 359 1206 359 2328 
Q 359 3453 968 4101 
Q 1578 4750 2638 4750 
Q 3056 4750 3426 4639 
Q 3797 4528 4122 4306 
z
" transform="scale(0.015625)"/>
       <path id="DejaVuSans-73" d="M 2834 3397 
L 2834 2853 
Q 2591 2978 2328 3040 
Q 2066 3103 1784 3103 
Q 1356 3103 1142 2972 
Q 928 2841 928 2578 
Q 928 2378 1081 2264 
Q 1234 2150 1697 2047 
L 1894 2003 
Q 2506 1872 2764 1633 
Q 3022 1394 3022 966 
Q 3022 478 2636 193 
Q 2250 -91 1575 -91 
Q 1294 -91 989 -36 
Q 684 19 347 128 
L 347 722 
Q 666 556 975 473 
Q 1284 391 1588 391 
Q 1994 391 2212 530 
Q 2431 669 2431 922 
Q 2431 1156 2273 1281 
Q 2116 1406 1581 1522 
L 1381 1569 
Q 847 1681 609 1914 
Q 372 2147 372 2553 
Q 372 3047 722 3315 
Q 1072 3584 1716 3584 
Q 2034 3584 2315 3537 
Q 2597 3491 2834 3397 
z
" transform="scale(0.015625)"/>
       <path id="DejaVuSans-2d" d="M 313 2009 
L 1997 2009 
L 1997 1497 
L 313 1497 
L 313 2009 
z
" transform="scale(0.015625)"/>
       <path id="DejaVuSans-70" d="M 1159 525 
L 1159 -1331 
L 581 -1331 
L 581 3500 
L 1159 3500 
L 1159 2969 
Q 1341 3281 1617 3432 
Q 1894 3584 2278 3584 
Q 2916 3584 3314 3078 
Q 3713 2572 3713 1747 
Q 3713 922 3314 415 
Q 2916 -91 2278 -91 
Q 1894 -91 1617 61 
Q 1341 213 1159 525 
z
M 3116 1747 
Q 3116 2381 2855 2742 
Q 2594 3103 2138 3103 
Q 1681 3103 1420 2742 
Q 1159 2381 1159 1747 
Q 1159 1113 1420 752 
Q 1681 391 2138 391 
Q 2594 391 2855 752 
Q 3116 1113 3116 1747 
z
" transform="scale(0.015625)"/>
       <path id="DejaVuSans-79" d="M 2059 -325 
Q 1816 -950 1584 -1140 
Q 1353 -1331 966 -1331 
L 506 -1331 
L 506 -850 
L 844 -850 
Q 1081 -850 1212 -737 
Q 1344 -625 1503 -206 
L 1606 56 
L 191 3500 
L 800 3500 
L 1894 763 
L 2988 3500 
L 3597 3500 
L 2059 -325 
z
" transform="scale(0.015625)"/>
      </defs>
      <use xlink:href="#DejaVuSans-43"/>
      <use xlink:href="#DejaVuSans-72" transform="translate(69.824219 0)"/>
      <use xlink:href="#DejaVuSans-6f" transform="translate(108.6875 0)"/>
      <use xlink:href="#DejaVuSans-73" transform="translate(169.869141 0)"/>
      <use xlink:href="#DejaVuSans-73" transform="translate(221.96875 0)"/>
      <use xlink:href="#DejaVuSans-2d" transform="translate(274.068359 0)"/>
      <use xlink:href="#DejaVuSans-65" transform="translate(310.152344 0)"/>
      <use xlink:href="#DejaVuSans-6e" transform="translate(371.675781 0)"/>
      <use xlink:href="#DejaVuSans-74" transform="translate(435.054688 0)"/>
      <use xlink:href="#DejaVuSans-72" transform="translate(474.263672 0)"/>
      <use xlink:href="#DejaVuSans-6f" transform="translate(513.126953 0)"/>
      <use xlink:href="#DejaVuSans-70" transform="translate(574.308594 0)"/>
      <use xlink:href="#DejaVuSans-79" transform="translate(637.785156 0)"/>
     </g>
    </g>
   </g>
   <g id="line2d_59">
    <path d="M 87.085294 329.740424 
L 99.05791 330.255209 
L 111.030526 330.753238 
L 123.003142 331.256372 
L 134.975758 331.704444 
L 146.948375 332.272455 
L 158.920991 332.794718 
L 170.893607 333.29401 
L 182.866223 333.777938 
L 194.83884 334.285017 
L 206.811456 334.770215 
L 218.784072 335.234284 
L 230.756688 335.752138 
L 242.729304 336.224944 
L 254.701921 336.583637 
L 266.674537 337.047387 
L 278.647153 337.459841 
L 290.619769 337.868754 
L 302.592386 338.224161 
L 314.565002 338.633917 
L 326.537618 338.898235 
L 338.510234 339.21504 
L 350.482851 339.558255 
L 362.455467 339.862098 
L 374.428083 340.207569 
L 386.400699 340.440997 
L 398.373315 340.675391 
L 410.345932 340.890703 
L 422.318548 341.168977 
L 434.291164 341.423373 
" clip-path="url(#p5d719bc40f)" style="fill: none; stroke: #1f77b4; stroke-width: 2; stroke-linecap: square"/>
   </g>
   <g id="line2d_60">
    <path d="M 87.085294 329.754376 
L 99.05791 327.946812 
L 111.030526 325.783285 
L 123.003142 323.384737 
L 134.975758 320.985511 
L 146.948375 318.898933 
L 158.920991 316.827112 
L 170.893607 314.821719 
L 182.866223 312.91719 
L 194.83884 310.936761 
L 206.811456 308.733646 
L 218.784072 306.249804 
L 230.756688 303.442994 
L 242.729304 300.599773 
L 254.701921 297.639499 
L 266.674537 294.289363 
L 278.647153 291.144609 
L 290.619769 287.789436 
L 302.592386 283.758374 
L 314.565002 279.923857 
L 326.537618 276.169625 
L 338.510234 271.740934 
L 350.482851 267.771257 
L 362.455467 263.469696 
L 374.428083 258.650087 
L 386.400699 253.461254 
L 398.373315 248.575879 
L 410.345932 244.24399 
L 422.318548 239.337698 
L 434.291164 234.019445 
" clip-path="url(#p5d719bc40f)" style="fill: none; stroke-dasharray: 7.4,3.2; stroke-dashoffset: 0; stroke: #ff7f0e; stroke-width: 2"/>
   </g>
   <g id="patch_9">
    <path d="M 69.725 349.854529 
L 69.725 188.158121 
" style="fill: none; stroke: #000000; stroke-width: 0.8; stroke-linejoin: miter; stroke-linecap: square"/>
   </g>
   <g id="patch_10">
    <path d="M 451.651458 349.854529 
L 451.651458 188.158121 
" style="fill: none; stroke: #000000; stroke-width: 0.8; stroke-linejoin: miter; stroke-linecap: square"/>
   </g>
   <g id="patch_11">
    <path d="M 69.725 349.854529 
L 451.651458 349.854529 
" style="fill: none; stroke: #000000; stroke-width: 0.8; stroke-linejoin: miter; stroke-linecap: square"/>
   </g>
   <g id="patch_12">
    <path d="M 69.725 188.158121 
L 451.651458 188.158121 
" style="fill: none; stroke: #000000; stroke-width: 0.8; stroke-linejoin: miter; stroke-linecap: square"/>
   </g>
   <g id="legend_2">
    <g id="patch_13">
     <path d="M 76.725 225.514371 
L 169.589063 225.514371 
Q 171.589063 225.514371 171.589063 223.514371 
L 171.589063 195.158121 
Q 171.589063 193.158121 169.589063 193.158121 
L 76.725 193.158121 
Q 74.725 193.158121 74.725 195.158121 
L 74.725 223.514371 
Q 74.725 225.514371 76.725 225.514371 
z
" style="fill: #ffffff; opacity: 0.8; stroke: #cccccc; stroke-linejoin: miter"/>
    </g>
    <g id="line2d_61">
     <path d="M 78.725 201.256558 
L 88.725 201.256558 
L 98.725 201.256558 
" style="fill: none; stroke: #1f77b4; stroke-width: 2; stroke-linecap: square"/>
    </g>
    <g id="text_18">
     <!-- control -->
     <g transform="translate(106.725 204.756558) scale(0.1 -0.1)">
      <use xlink:href="#DejaVuSans-63"/>
      <use xlink:href="#DejaVuSans-6f" transform="translate(54.980469 0)"/>
      <use xlink:href="#DejaVuSans-6e" transform="translate(116.162109 0)"/>
      <use xlink:href="#DejaVuSans-74" transform="translate(179.541016 0)"/>
      <use xlink:href="#DejaVuSans-72" transform="translate(218.75 0)"/>
      <use xlink:href="#DejaVuSans-6f" transform="translate(257.613281 0)"/>
      <use xlink:href="#DejaVuSans-6c" transform="translate(318.794922 0)"/>
     </g>
    </g>
    <g id="line2d_62">
     <path d="M 78.725 215.934683 
L 88.725 215.934683 
L 98.725 215.934683 
" style="fill: none; stroke-dasharray: 7.4,3.2; stroke-dashoffset: 0; stroke: #ff7f0e; stroke-width: 2"/>
    </g>
    <g id="text_19">
     <!-- intervention -->
     <g transform="translate(106.725 219.434683) scale(0.1 -0.1)">
      <use xlink:href="#DejaVuSans-69"/>
      <use xlink:href="#DejaVuSans-6e" transform="translate(27.783203 0)"/>
      <use xlink:href="#DejaVuSans-74" transform="translate(91.162109 0)"/>
      <use xlink:href="#DejaVuSans-65" transform="translate(130.371094 0)"/>
      <use xlink:href="#DejaVuSans-72" transform="translate(191.894531 0)"/>
      <use xlink:href="#DejaVuSans-76" transform="translate(233.007812 0)"/>
      <use xlink:href="#DejaVuSans-65" transform="translate(292.1875 0)"/>
      <use xlink:href="#DejaVuSans-6e" transform="translate(353.710938 0)"/>
      <use xlink:href="#DejaVuSans-74" transform="translate(417.089844 0)"/>
      <use xlink:href="#DejaVuSans-69" transform="translate(456.298828 0)"/>
      <use xlink:href="#DejaVuSans-6f" transform="translate(484.082031 0)"/>
      <use xlink:href="#DejaVuSans-6e" transform="translate(545.263672 0)"/>
     </g>
    </g>
   </g>
  </g>
  <g id="axes_3">
   <g id="patch_14">
    <path d="M 69.725 528.466325 
L 451.651458 528.466325 
L 451.651458 366.769917 
L 69.725 366.769917 
z
" style="fill: #ffffff"/>
   </g>
   <g id="FillBetweenPolyCollection_5">
    <defs>
     <path id="m6c6813ee0d" d="M 87.085294 -168.284024 
L 87.085294 -74.634208 
L 99.05791 -82.219771 
L 111.030526 -85.984958 
L 123.003142 -88.125624 
L 134.975758 -97.921572 
L 146.948375 -110.088234 
L 158.920991 -109.930671 
L 170.893607 -110.825778 
L 182.866223 -106.458517 
L 194.83884 -109.918803 
L 206.811456 -97.871813 
L 218.784072 -97.676433 
L 230.756688 -87.419713 
L 242.729304 -96.921736 
L 254.701921 -98.915655 
L 266.674537 -107.456128 
L 278.647153 -99.867889 
L 290.619769 -93.241816 
L 302.592386 -85.898279 
L 314.565002 -80.876434 
L 326.537618 -91.923095 
L 338.510234 -81.395915 
L 350.482851 -91.106558 
L 362.455467 -86.508574 
L 374.428083 -75.152108 
L 386.400699 -81.85339 
L 398.373315 -85.391207 
L 410.345932 -79.469727 
L 422.318548 -73.395538 
L 434.291164 -73.641515 
L 434.291164 -167.664154 
L 434.291164 -167.664154 
L 422.318548 -167.349516 
L 410.345932 -164.787629 
L 398.373315 -170.055624 
L 386.400699 -171.990907 
L 374.428083 -170.507808 
L 362.455467 -176.755904 
L 350.482851 -168.282528 
L 338.510234 -170.058367 
L 326.537618 -175.894968 
L 314.565002 -162.649883 
L 302.592386 -179.447668 
L 290.619769 -172.559247 
L 278.647153 -178.431611 
L 266.674537 -182.31717 
L 254.701921 -175.492299 
L 242.729304 -183.505658 
L 230.756688 -174.827699 
L 218.784072 -187.441676 
L 206.811456 -187.526017 
L 194.83884 -194.554584 
L 182.866223 -196.741884 
L 170.893607 -187.951687 
L 158.920991 -190.908744 
L 146.948375 -193.71249 
L 134.975758 -183.450805 
L 123.003142 -175.241332 
L 111.030526 -177.873755 
L 99.05791 -179.358501 
L 87.085294 -168.284024 
z
" style="stroke: #1f77b4; stroke-opacity: 0.25"/>
    </defs>
    <g clip-path="url(#pe6ac11b651)">
     <use xlink:href="#m6c6813ee0d" x="0" y="570.861637" style="fill: #1f77b4; fill-opacity: 0.25; stroke: #1f77b4; stroke-opacity: 0.25"/>
    </g>
   </g>
   <g id="FillBetweenPolyCollection_6">
    <defs>
     <path id="mcf7ecffdbc" d="M 87.085294 -111.365601 
L 87.085294 -73.792433 
L 99.05791 -65.096857 
L 111.030526 -66.818818 
L 123.003142 -67.285644 
L 134.975758 -64.265958 
L 146.948375 -64.300702 
L 158.920991 -69.36479 
L 170.893607 -63.501652 
L 182.866223 -61.630412 
L 194.83884 -57.203884 
L 206.811456 -53.908531 
L 218.784072 -59.867389 
L 230.756688 -53.523551 
L 242.729304 -61.907912 
L 254.701921 -65.131975 
L 266.674537 -73.688318 
L 278.647153 -65.608378 
L 290.619769 -57.009084 
L 302.592386 -50.043447 
L 314.565002 -49.745149 
L 326.537618 -58.999201 
L 338.510234 -62.5316 
L 350.482851 -63.918209 
L 362.455467 -57.534408 
L 374.428083 -52.679768 
L 386.400699 -58.340375 
L 398.373315 -61.349468 
L 410.345932 -60.882489 
L 422.318548 -50.766415 
L 434.291164 -59.277259 
L 434.291164 -109.446599 
L 434.291164 -109.446599 
L 422.318548 -107.782575 
L 410.345932 -112.439299 
L 398.373315 -111.988765 
L 386.400699 -114.951752 
L 374.428083 -114.665848 
L 362.455467 -111.787742 
L 350.482851 -111.139221 
L 338.510234 -107.226974 
L 326.537618 -112.188795 
L 314.565002 -109.378096 
L 302.592386 -116.255727 
L 290.619769 -111.90127 
L 278.647153 -112.482776 
L 266.674537 -113.381323 
L 254.701921 -111.532134 
L 242.729304 -114.647938 
L 230.756688 -113.701024 
L 218.784072 -114.611009 
L 206.811456 -111.765124 
L 194.83884 -115.598059 
L 182.866223 -114.2229 
L 170.893607 -113.328083 
L 158.920991 -113.204863 
L 146.948375 -113.581 
L 134.975758 -114.209125 
L 123.003142 -114.429458 
L 111.030526 -112.748657 
L 99.05791 -112.488623 
L 87.085294 -111.365601 
z
" style="stroke: #ff7f0e; stroke-opacity: 0.25"/>
    </defs>
    <g clip-path="url(#pe6ac11b651)">
     <use xlink:href="#mcf7ecffdbc" x="0" y="570.861637" style="fill: #ff7f0e; fill-opacity: 0.25; stroke: #ff7f0e; stroke-opacity: 0.25"/>
    </g>
   </g>
   <g id="matplotlib.axis_5">
    <g id="xtick_15">
     <g id="line2d_63">
      <path d="M 87.085294 528.466325 
L 87.085294 366.769917 
" clip-path="url(#pe6ac11b651)" style="fill: none; stroke: #b0b0b0; stroke-opacity: 0.3; stroke-width: 0.8; stroke-linecap: square"/>
     </g>
     <g id="line2d_64">
      <g>
       <use xlink:href="#m9cd64e0dab" x="87.085294" y="528.466325" style="stroke: #000000; stroke-width: 0.8"/>
      </g>
     </g>
     <g id="text_20">
      <!-- 0 -->
      <g transform="translate(83.904044 543.064762) scale(0.1 -0.1)">
       <use xlink:href="#DejaVuSans-30"/>
      </g>
     </g>
    </g>
    <g id="xtick_16">
     <g id="line2d_65">
      <path d="M 146.948375 528.466325 
L 146.948375 366.769917 
" clip-path="url(#pe6ac11b651)" style="fill: none; stroke: #b0b0b0; stroke-opacity: 0.3; stroke-width: 0.8; stroke-linecap: square"/>
     </g>
     <g id="line2d_66">
      <g>
       <use xlink:href="#m9cd64e0dab" x="146.948375" y="528.466325" style="stroke: #000000; stroke-width: 0.8"/>
      </g>
     </g>
     <g id="text_21">
      <!-- 50 -->
      <g transform="translate(140.585875 543.064762) scale(0.1 -0.1)">
       <defs>
        <path id="DejaVuSans-35" d="M 691 4666 
L 3169 4666 
L 3169 4134 
L 1269 4134 
L 1269 2991 
Q 1406 3038 1543 3061 
Q 1681 3084 1819 3084 
Q 2600 3084 3056 2656 
Q 3513 2228 3513 1497 
Q 3513 744 3044 326 
Q 2575 -91 1722 -91 
Q 1428 -91 1123 -41 
Q 819 9 494 109 
L 494 744 
Q 775 591 1075 516 
Q 1375 441 1709 441 
Q 2250 441 2565 725 
Q 2881 1009 2881 1497 
Q 2881 1984 2565 2268 
Q 2250 2553 1709 2553 
Q 1456 2553 1204 2497 
Q 953 2441 691 2322 
L 691 4666 
z
" transform="scale(0.015625)"/>
       </defs>
       <use xlink:href="#DejaVuSans-35"/>
       <use xlink:href="#DejaVuSans-30" transform="translate(63.623047 0)"/>
      </g>
     </g>
    </g>
    <g id="xtick_17">
     <g id="line2d_67">
      <path d="M 206.811456 528.466325 
L 206.811456 366.769917 
" clip-path="url(#pe6ac11b651)" style="fill: none; stroke: #b0b0b0; stroke-opacity: 0.3; stroke-width: 0.8; stroke-linecap: square"/>
     </g>
     <g id="line2d_68">
      <g>
       <use xlink:href="#m9cd64e0dab" x="206.811456" y="528.466325" style="stroke: #000000; stroke-width: 0.8"/>
      </g>
     </g>
     <g id="text_22">
      <!-- 100 -->
      <g transform="translate(197.267706 543.064762) scale(0.1 -0.1)">
       <use xlink:href="#DejaVuSans-31"/>
       <use xlink:href="#DejaVuSans-30" transform="translate(63.623047 0)"/>
       <use xlink:href="#DejaVuSans-30" transform="translate(127.246094 0)"/>
      </g>
     </g>
    </g>
    <g id="xtick_18">
     <g id="line2d_69">
      <path d="M 266.674537 528.466325 
L 266.674537 366.769917 
" clip-path="url(#pe6ac11b651)" style="fill: none; stroke: #b0b0b0; stroke-opacity: 0.3; stroke-width: 0.8; stroke-linecap: square"/>
     </g>
     <g id="line2d_70">
      <g>
       <use xlink:href="#m9cd64e0dab" x="266.674537" y="528.466325" style="stroke: #000000; stroke-width: 0.8"/>
      </g>
     </g>
     <g id="text_23">
      <!-- 150 -->
      <g transform="translate(257.130787 543.064762) scale(0.1 -0.1)">
       <use xlink:href="#DejaVuSans-31"/>
       <use xlink:href="#DejaVuSans-35" transform="translate(63.623047 0)"/>
       <use xlink:href="#DejaVuSans-30" transform="translate(127.246094 0)"/>
      </g>
     </g>
    </g>
    <g id="xtick_19">
     <g id="line2d_71">
      <path d="M 326.537618 528.466325 
L 326.537618 366.769917 
" clip-path="url(#pe6ac11b651)" style="fill: none; stroke: #b0b0b0; stroke-opacity: 0.3; stroke-width: 0.8; stroke-linecap: square"/>
     </g>
     <g id="line2d_72">
      <g>
       <use xlink:href="#m9cd64e0dab" x="326.537618" y="528.466325" style="stroke: #000000; stroke-width: 0.8"/>
      </g>
     </g>
     <g id="text_24">
      <!-- 200 -->
      <g transform="translate(316.993868 543.064762) scale(0.1 -0.1)">
       <use xlink:href="#DejaVuSans-32"/>
       <use xlink:href="#DejaVuSans-30" transform="translate(63.623047 0)"/>
       <use xlink:href="#DejaVuSans-30" transform="translate(127.246094 0)"/>
      </g>
     </g>
    </g>
    <g id="xtick_20">
     <g id="line2d_73">
      <path d="M 386.400699 528.466325 
L 386.400699 366.769917 
" clip-path="url(#pe6ac11b651)" style="fill: none; stroke: #b0b0b0; stroke-opacity: 0.3; stroke-width: 0.8; stroke-linecap: square"/>
     </g>
     <g id="line2d_74">
      <g>
       <use xlink:href="#m9cd64e0dab" x="386.400699" y="528.466325" style="stroke: #000000; stroke-width: 0.8"/>
      </g>
     </g>
     <g id="text_25">
      <!-- 250 -->
      <g transform="translate(376.856949 543.064762) scale(0.1 -0.1)">
       <use xlink:href="#DejaVuSans-32"/>
       <use xlink:href="#DejaVuSans-35" transform="translate(63.623047 0)"/>
       <use xlink:href="#DejaVuSans-30" transform="translate(127.246094 0)"/>
      </g>
     </g>
    </g>
    <g id="xtick_21">
     <g id="line2d_75">
      <path d="M 446.26378 528.466325 
L 446.26378 366.769917 
" clip-path="url(#pe6ac11b651)" style="fill: none; stroke: #b0b0b0; stroke-opacity: 0.3; stroke-width: 0.8; stroke-linecap: square"/>
     </g>
     <g id="line2d_76">
      <g>
       <use xlink:href="#m9cd64e0dab" x="446.26378" y="528.466325" style="stroke: #000000; stroke-width: 0.8"/>
      </g>
     </g>
     <g id="text_26">
      <!-- 300 -->
      <g transform="translate(436.72003 543.064762) scale(0.1 -0.1)">
       <defs>
        <path id="DejaVuSans-33" d="M 2597 2516 
Q 3050 2419 3304 2112 
Q 3559 1806 3559 1356 
Q 3559 666 3084 287 
Q 2609 -91 1734 -91 
Q 1441 -91 1130 -33 
Q 819 25 488 141 
L 488 750 
Q 750 597 1062 519 
Q 1375 441 1716 441 
Q 2309 441 2620 675 
Q 2931 909 2931 1356 
Q 2931 1769 2642 2001 
Q 2353 2234 1838 2234 
L 1294 2234 
L 1294 2753 
L 1863 2753 
Q 2328 2753 2575 2939 
Q 2822 3125 2822 3475 
Q 2822 3834 2567 4026 
Q 2313 4219 1838 4219 
Q 1578 4219 1281 4162 
Q 984 4106 628 3988 
L 628 4550 
Q 988 4650 1302 4700 
Q 1616 4750 1894 4750 
Q 2613 4750 3031 4423 
Q 3450 4097 3450 3541 
Q 3450 3153 3228 2886 
Q 3006 2619 2597 2516 
z
" transform="scale(0.015625)"/>
       </defs>
       <use xlink:href="#DejaVuSans-33"/>
       <use xlink:href="#DejaVuSans-30" transform="translate(63.623047 0)"/>
       <use xlink:href="#DejaVuSans-30" transform="translate(127.246094 0)"/>
      </g>
     </g>
    </g>
    <g id="text_27">
     <!-- Logged step -->
     <g transform="translate(214.545651 560.542106) scale(0.15 -0.15)">
      <use xlink:href="#DejaVuSans-4c"/>
      <use xlink:href="#DejaVuSans-6f" transform="translate(53.962891 0)"/>
      <use xlink:href="#DejaVuSans-67" transform="translate(115.144531 0)"/>
      <use xlink:href="#DejaVuSans-67" transform="translate(178.621094 0)"/>
      <use xlink:href="#DejaVuSans-65" transform="translate(242.097656 0)"/>
      <use xlink:href="#DejaVuSans-64" transform="translate(303.621094 0)"/>
      <use xlink:href="#DejaVuSans-20" transform="translate(367.097656 0)"/>
      <use xlink:href="#DejaVuSans-73" transform="translate(398.884766 0)"/>
      <use xlink:href="#DejaVuSans-74" transform="translate(450.984375 0)"/>
      <use xlink:href="#DejaVuSans-65" transform="translate(490.193359 0)"/>
      <use xlink:href="#DejaVuSans-70" transform="translate(551.716797 0)"/>
     </g>
    </g>
   </g>
   <g id="matplotlib.axis_6">
    <g id="ytick_14">
     <g id="line2d_77">
      <path d="M 69.725 511.753488 
L 451.651458 511.753488 
" clip-path="url(#pe6ac11b651)" style="fill: none; stroke: #b0b0b0; stroke-opacity: 0.3; stroke-width: 0.8; stroke-linecap: square"/>
     </g>
     <g id="line2d_78">
      <g>
       <use xlink:href="#mbecc6cdad4" x="69.725" y="511.753488" style="stroke: #000000; stroke-width: 0.8"/>
      </g>
     </g>
     <g id="text_28">
      <!-- −0.010 -->
      <g transform="translate(25.717188 515.552707) scale(0.1 -0.1)">
       <defs>
        <path id="DejaVuSans-2212" d="M 678 2272 
L 4684 2272 
L 4684 1741 
L 678 1741 
L 678 2272 
z
" transform="scale(0.015625)"/>
       </defs>
       <use xlink:href="#DejaVuSans-2212"/>
       <use xlink:href="#DejaVuSans-30" transform="translate(83.789062 0)"/>
       <use xlink:href="#DejaVuSans-2e" transform="translate(147.412109 0)"/>
       <use xlink:href="#DejaVuSans-30" transform="translate(179.199219 0)"/>
       <use xlink:href="#DejaVuSans-31" transform="translate(242.822266 0)"/>
       <use xlink:href="#DejaVuSans-30" transform="translate(306.445312 0)"/>
      </g>
     </g>
    </g>
    <g id="ytick_15">
     <g id="line2d_79">
      <path d="M 69.725 489.853269 
L 451.651458 489.853269 
" clip-path="url(#pe6ac11b651)" style="fill: none; stroke: #b0b0b0; stroke-opacity: 0.3; stroke-width: 0.8; stroke-linecap: square"/>
     </g>
     <g id="line2d_80">
      <g>
       <use xlink:href="#mbecc6cdad4" x="69.725" y="489.853269" style="stroke: #000000; stroke-width: 0.8"/>
      </g>
     </g>
     <g id="text_29">
      <!-- −0.005 -->
      <g transform="translate(25.717188 493.652488) scale(0.1 -0.1)">
       <use xlink:href="#DejaVuSans-2212"/>
       <use xlink:href="#DejaVuSans-30" transform="translate(83.789062 0)"/>
       <use xlink:href="#DejaVuSans-2e" transform="translate(147.412109 0)"/>
       <use xlink:href="#DejaVuSans-30" transform="translate(179.199219 0)"/>
       <use xlink:href="#DejaVuSans-30" transform="translate(242.822266 0)"/>
       <use xlink:href="#DejaVuSans-35" transform="translate(306.445312 0)"/>
      </g>
     </g>
    </g>
    <g id="ytick_16">
     <g id="line2d_81">
      <path d="M 69.725 467.95305 
L 451.651458 467.95305 
" clip-path="url(#pe6ac11b651)" style="fill: none; stroke: #b0b0b0; stroke-opacity: 0.3; stroke-width: 0.8; stroke-linecap: square"/>
     </g>
     <g id="line2d_82">
      <g>
       <use xlink:href="#mbecc6cdad4" x="69.725" y="467.95305" style="stroke: #000000; stroke-width: 0.8"/>
      </g>
     </g>
     <g id="text_30">
      <!-- 0.000 -->
      <g transform="translate(34.096875 471.752269) scale(0.1 -0.1)">
       <use xlink:href="#DejaVuSans-30"/>
       <use xlink:href="#DejaVuSans-2e" transform="translate(63.623047 0)"/>
       <use xlink:href="#DejaVuSans-30" transform="translate(95.410156 0)"/>
       <use xlink:href="#DejaVuSans-30" transform="translate(159.033203 0)"/>
       <use xlink:href="#DejaVuSans-30" transform="translate(222.65625 0)"/>
      </g>
     </g>
    </g>
    <g id="ytick_17">
     <g id="line2d_83">
      <path d="M 69.725 446.052831 
L 451.651458 446.052831 
" clip-path="url(#pe6ac11b651)" style="fill: none; stroke: #b0b0b0; stroke-opacity: 0.3; stroke-width: 0.8; stroke-linecap: square"/>
     </g>
     <g id="line2d_84">
      <g>
       <use xlink:href="#mbecc6cdad4" x="69.725" y="446.052831" style="stroke: #000000; stroke-width: 0.8"/>
      </g>
     </g>
     <g id="text_31">
      <!-- 0.005 -->
      <g transform="translate(34.096875 449.85205) scale(0.1 -0.1)">
       <use xlink:href="#DejaVuSans-30"/>
       <use xlink:href="#DejaVuSans-2e" transform="translate(63.623047 0)"/>
       <use xlink:href="#DejaVuSans-30" transform="translate(95.410156 0)"/>
       <use xlink:href="#DejaVuSans-30" transform="translate(159.033203 0)"/>
       <use xlink:href="#DejaVuSans-35" transform="translate(222.65625 0)"/>
      </g>
     </g>
    </g>
    <g id="ytick_18">
     <g id="line2d_85">
      <path d="M 69.725 424.152613 
L 451.651458 424.152613 
" clip-path="url(#pe6ac11b651)" style="fill: none; stroke: #b0b0b0; stroke-opacity: 0.3; stroke-width: 0.8; stroke-linecap: square"/>
     </g>
     <g id="line2d_86">
      <g>
       <use xlink:href="#mbecc6cdad4" x="69.725" y="424.152613" style="stroke: #000000; stroke-width: 0.8"/>
      </g>
     </g>
     <g id="text_32">
      <!-- 0.010 -->
      <g transform="translate(34.096875 427.951831) scale(0.1 -0.1)">
       <use xlink:href="#DejaVuSans-30"/>
       <use xlink:href="#DejaVuSans-2e" transform="translate(63.623047 0)"/>
       <use xlink:href="#DejaVuSans-30" transform="translate(95.410156 0)"/>
       <use xlink:href="#DejaVuSans-31" transform="translate(159.033203 0)"/>
       <use xlink:href="#DejaVuSans-30" transform="translate(222.65625 0)"/>
      </g>
     </g>
    </g>
    <g id="ytick_19">
     <g id="line2d_87">
      <path d="M 69.725 402.252394 
L 451.651458 402.252394 
" clip-path="url(#pe6ac11b651)" style="fill: none; stroke: #b0b0b0; stroke-opacity: 0.3; stroke-width: 0.8; stroke-linecap: square"/>
     </g>
     <g id="line2d_88">
      <g>
       <use xlink:href="#mbecc6cdad4" x="69.725" y="402.252394" style="stroke: #000000; stroke-width: 0.8"/>
      </g>
     </g>
     <g id="text_33">
      <!-- 0.015 -->
      <g transform="translate(34.096875 406.051613) scale(0.1 -0.1)">
       <use xlink:href="#DejaVuSans-30"/>
       <use xlink:href="#DejaVuSans-2e" transform="translate(63.623047 0)"/>
       <use xlink:href="#DejaVuSans-30" transform="translate(95.410156 0)"/>
       <use xlink:href="#DejaVuSans-31" transform="translate(159.033203 0)"/>
       <use xlink:href="#DejaVuSans-35" transform="translate(222.65625 0)"/>
      </g>
     </g>
    </g>
    <g id="ytick_20">
     <g id="line2d_89">
      <path d="M 69.725 380.352175 
L 451.651458 380.352175 
" clip-path="url(#pe6ac11b651)" style="fill: none; stroke: #b0b0b0; stroke-opacity: 0.3; stroke-width: 0.8; stroke-linecap: square"/>
     </g>
     <g id="line2d_90">
      <g>
       <use xlink:href="#mbecc6cdad4" x="69.725" y="380.352175" style="stroke: #000000; stroke-width: 0.8"/>
      </g>
     </g>
     <g id="text_34">
      <!-- 0.020 -->
      <g transform="translate(34.096875 384.151394) scale(0.1 -0.1)">
       <use xlink:href="#DejaVuSans-30"/>
       <use xlink:href="#DejaVuSans-2e" transform="translate(63.623047 0)"/>
       <use xlink:href="#DejaVuSans-30" transform="translate(95.410156 0)"/>
       <use xlink:href="#DejaVuSans-32" transform="translate(159.033203 0)"/>
       <use xlink:href="#DejaVuSans-30" transform="translate(222.65625 0)"/>
      </g>
     </g>
    </g>
    <g id="text_35">
     <!-- Cosine similarity -->
     <g transform="translate(18.597656 509.791949) rotate(-90) scale(0.15 -0.15)">
      <defs>
       <path id="DejaVuSans-6d" d="M 3328 2828 
Q 3544 3216 3844 3400 
Q 4144 3584 4550 3584 
Q 5097 3584 5394 3201 
Q 5691 2819 5691 2113 
L 5691 0 
L 5113 0 
L 5113 2094 
Q 5113 2597 4934 2840 
Q 4756 3084 4391 3084 
Q 3944 3084 3684 2787 
Q 3425 2491 3425 1978 
L 3425 0 
L 2847 0 
L 2847 2094 
Q 2847 2600 2669 2842 
Q 2491 3084 2119 3084 
Q 1678 3084 1418 2786 
Q 1159 2488 1159 1978 
L 1159 0 
L 581 0 
L 581 3500 
L 1159 3500 
L 1159 2956 
Q 1356 3278 1631 3431 
Q 1906 3584 2284 3584 
Q 2666 3584 2933 3390 
Q 3200 3197 3328 2828 
z
" transform="scale(0.015625)"/>
       <path id="DejaVuSans-61" d="M 2194 1759 
Q 1497 1759 1228 1600 
Q 959 1441 959 1056 
Q 959 750 1161 570 
Q 1363 391 1709 391 
Q 2188 391 2477 730 
Q 2766 1069 2766 1631 
L 2766 1759 
L 2194 1759 
z
M 3341 1997 
L 3341 0 
L 2766 0 
L 2766 531 
Q 2569 213 2275 61 
Q 1981 -91 1556 -91 
Q 1019 -91 701 211 
Q 384 513 384 1019 
Q 384 1609 779 1909 
Q 1175 2209 1959 2209 
L 2766 2209 
L 2766 2266 
Q 2766 2663 2505 2880 
Q 2244 3097 1772 3097 
Q 1472 3097 1187 3025 
Q 903 2953 641 2809 
L 641 3341 
Q 956 3463 1253 3523 
Q 1550 3584 1831 3584 
Q 2591 3584 2966 3190 
Q 3341 2797 3341 1997 
z
" transform="scale(0.015625)"/>
      </defs>
      <use xlink:href="#DejaVuSans-43"/>
      <use xlink:href="#DejaVuSans-6f" transform="translate(69.824219 0)"/>
      <use xlink:href="#DejaVuSans-73" transform="translate(131.005859 0)"/>
      <use xlink:href="#DejaVuSans-69" transform="translate(183.105469 0)"/>
      <use xlink:href="#DejaVuSans-6e" transform="translate(210.888672 0)"/>
      <use xlink:href="#DejaVuSans-65" transform="translate(274.267578 0)"/>
      <use xlink:href="#DejaVuSans-20" transform="translate(335.791016 0)"/>
      <use xlink:href="#DejaVuSans-73" transform="translate(367.578125 0)"/>
      <use xlink:href="#DejaVuSans-69" transform="translate(419.677734 0)"/>
      <use xlink:href="#DejaVuSans-6d" transform="translate(447.460938 0)"/>
      <use xlink:href="#DejaVuSans-69" transform="translate(544.873047 0)"/>
      <use xlink:href="#DejaVuSans-6c" transform="translate(572.65625 0)"/>
      <use xlink:href="#DejaVuSans-61" transform="translate(600.439453 0)"/>
      <use xlink:href="#DejaVuSans-72" transform="translate(661.71875 0)"/>
      <use xlink:href="#DejaVuSans-69" transform="translate(702.832031 0)"/>
      <use xlink:href="#DejaVuSans-74" transform="translate(730.615234 0)"/>
      <use xlink:href="#DejaVuSans-79" transform="translate(769.824219 0)"/>
     </g>
    </g>
   </g>
   <g id="line2d_91">
    <path d="M 87.085294 449.402521 
L 99.05791 440.072501 
L 111.030526 438.932281 
L 123.003142 439.178159 
L 134.975758 430.175449 
L 146.948375 418.961275 
L 158.920991 420.441929 
L 170.893607 421.472905 
L 182.866223 419.261437 
L 194.83884 418.624944 
L 206.811456 428.162723 
L 218.784072 428.302583 
L 230.756688 439.737931 
L 242.729304 430.647941 
L 254.701921 433.65766 
L 266.674537 425.974988 
L 278.647153 431.711887 
L 290.619769 437.961106 
L 302.592386 438.188664 
L 314.565002 449.098479 
L 326.537618 436.952605 
L 338.510234 445.134497 
L 350.482851 441.167094 
L 362.455467 439.229399 
L 374.428083 448.031679 
L 386.400699 443.939489 
L 398.373315 443.138222 
L 410.345932 448.732959 
L 422.318548 450.48911 
L 434.291164 450.208803 
" clip-path="url(#pe6ac11b651)" style="fill: none; stroke: #1f77b4; stroke-width: 2; stroke-linecap: square"/>
   </g>
   <g id="line2d_92">
    <path d="M 87.085294 478.28262 
L 99.05791 482.068897 
L 111.030526 481.0779 
L 123.003142 480.004086 
L 134.975758 481.624096 
L 146.948375 481.920786 
L 158.920991 479.57681 
L 170.893607 482.44677 
L 182.866223 482.934981 
L 194.83884 484.460665 
L 206.811456 488.02481 
L 218.784072 483.622438 
L 230.756688 487.24935 
L 242.729304 482.583712 
L 254.701921 482.529583 
L 266.674537 477.326817 
L 278.647153 481.81606 
L 290.619769 486.40646 
L 302.592386 487.71205 
L 314.565002 491.300015 
L 326.537618 485.267639 
L 338.510234 485.98235 
L 350.482851 483.332922 
L 362.455467 486.200562 
L 374.428083 487.18883 
L 386.400699 484.215574 
L 398.373315 484.192521 
L 410.345932 484.200743 
L 422.318548 491.587142 
L 434.291164 486.499708 
" clip-path="url(#pe6ac11b651)" style="fill: none; stroke-dasharray: 7.4,3.2; stroke-dashoffset: 0; stroke: #ff7f0e; stroke-width: 2"/>
   </g>
   <g id="line2d_93">
    <path d="M 69.725 467.95305 
L 451.651458 467.95305 
" clip-path="url(#pe6ac11b651)" style="fill: none; stroke: #1f77b4; stroke-linecap: square"/>
   </g>
   <g id="patch_15">
    <path d="M 69.725 528.466325 
L 69.725 366.769917 
" style="fill: none; stroke: #000000; stroke-width: 0.8; stroke-linejoin: miter; stroke-linecap: square"/>
   </g>
   <g id="patch_16">
    <path d="M 451.651458 528.466325 
L 451.651458 366.769917 
" style="fill: none; stroke: #000000; stroke-width: 0.8; stroke-linejoin: miter; stroke-linecap: square"/>
   </g>
   <g id="patch_17">
    <path d="M 69.725 528.466325 
L 451.651458 528.466325 
" style="fill: none; stroke: #000000; stroke-width: 0.8; stroke-linejoin: miter; stroke-linecap: square"/>
   </g>
   <g id="patch_18">
    <path d="M 69.725 366.769917 
L 451.651458 366.769917 
" style="fill: none; stroke: #000000; stroke-width: 0.8; stroke-linejoin: miter; stroke-linecap: square"/>
   </g>
   <g id="legend_3">
    <g id="patch_19">
     <path d="M 297.382708 404.404292 
L 444.651458 404.404292 
Q 446.651458 404.404292 446.651458 402.404292 
L 446.651458 373.769917 
Q 446.651458 371.769917 444.651458 371.769917 
L 297.382708 371.769917 
Q 295.382708 371.769917 295.382708 373.769917 
L 295.382708 402.404292 
Q 295.382708 404.404292 297.382708 404.404292 
z
" style="fill: #ffffff; opacity: 0.8; stroke: #cccccc; stroke-linejoin: miter"/>
    </g>
    <g id="line2d_94">
     <path d="M 299.382708 379.868354 
L 309.382708 379.868354 
L 319.382708 379.868354 
" style="fill: none; stroke: #1f77b4; stroke-width: 2; stroke-linecap: square"/>
    </g>
    <g id="text_36">
     <!-- control -->
     <g transform="translate(327.382708 383.368354) scale(0.1 -0.1)">
      <use xlink:href="#DejaVuSans-63"/>
      <use xlink:href="#DejaVuSans-6f" transform="translate(54.980469 0)"/>
      <use xlink:href="#DejaVuSans-6e" transform="translate(116.162109 0)"/>
      <use xlink:href="#DejaVuSans-74" transform="translate(179.541016 0)"/>
      <use xlink:href="#DejaVuSans-72" transform="translate(218.75 0)"/>
      <use xlink:href="#DejaVuSans-6f" transform="translate(257.613281 0)"/>
      <use xlink:href="#DejaVuSans-6c" transform="translate(318.794922 0)"/>
     </g>
    </g>
    <g id="line2d_95">
     <path d="M 299.382708 394.546479 
L 309.382708 394.546479 
L 319.382708 394.546479 
" style="fill: none; stroke-dasharray: 7.4,3.2; stroke-dashoffset: 0; stroke: #ff7f0e; stroke-width: 2"/>
    </g>
    <g id="text_37">
     <!-- intervention (cos_post) -->
     <g transform="translate(327.382708 398.046479) scale(0.1 -0.1)">
      <defs>
       <path id="DejaVuSans-28" d="M 1984 4856 
Q 1566 4138 1362 3434 
Q 1159 2731 1159 2009 
Q 1159 1288 1364 580 
Q 1569 -128 1984 -844 
L 1484 -844 
Q 1016 -109 783 600 
Q 550 1309 550 2009 
Q 550 2706 781 3412 
Q 1013 4119 1484 4856 
L 1984 4856 
z
" transform="scale(0.015625)"/>
       <path id="DejaVuSans-5f" d="M 3263 -1063 
L 3263 -1509 
L -63 -1509 
L -63 -1063 
L 3263 -1063 
z
" transform="scale(0.015625)"/>
       <path id="DejaVuSans-29" d="M 513 4856 
L 1013 4856 
Q 1481 4119 1714 3412 
Q 1947 2706 1947 2009 
Q 1947 1309 1714 600 
Q 1481 -109 1013 -844 
L 513 -844 
Q 928 -128 1133 580 
Q 1338 1288 1338 2009 
Q 1338 2731 1133 3434 
Q 928 4138 513 4856 
z
" transform="scale(0.015625)"/>
      </defs>
      <use xlink:href="#DejaVuSans-69"/>
      <use xlink:href="#DejaVuSans-6e" transform="translate(27.783203 0)"/>
      <use xlink:href="#DejaVuSans-74" transform="translate(91.162109 0)"/>
      <use xlink:href="#DejaVuSans-65" transform="translate(130.371094 0)"/>
      <use xlink:href="#DejaVuSans-72" transform="translate(191.894531 0)"/>
      <use xlink:href="#DejaVuSans-76" transform="translate(233.007812 0)"/>
      <use xlink:href="#DejaVuSans-65" transform="translate(292.1875 0)"/>
      <use xlink:href="#DejaVuSans-6e" transform="translate(353.710938 0)"/>
      <use xlink:href="#DejaVuSans-74" transform="translate(417.089844 0)"/>
      <use xlink:href="#DejaVuSans-69" transform="translate(456.298828 0)"/>
      <use xlink:href="#DejaVuSans-6f" transform="translate(484.082031 0)"/>
      <use xlink:href="#DejaVuSans-6e" transform="translate(545.263672 0)"/>
      <use xlink:href="#DejaVuSans-20" transform="translate(608.642578 0)"/>
      <use xlink:href="#DejaVuSans-28" transform="translate(640.429688 0)"/>
      <use xlink:href="#DejaVuSans-63" transform="translate(679.443359 0)"/>
      <use xlink:href="#DejaVuSans-6f" transform="translate(734.423828 0)"/>
      <use xlink:href="#DejaVuSans-73" transform="translate(795.605469 0)"/>
      <use xlink:href="#DejaVuSans-5f" transform="translate(847.705078 0)"/>
      <use xlink:href="#DejaVuSans-70" transform="translate(897.705078 0)"/>
      <use xlink:href="#DejaVuSans-6f" transform="translate(961.181641 0)"/>
      <use xlink:href="#DejaVuSans-73" transform="translate(1022.363281 0)"/>
      <use xlink:href="#DejaVuSans-74" transform="translate(1074.462891 0)"/>
      <use xlink:href="#DejaVuSans-29" transform="translate(1113.671875 0)"/>
     </g>
    </g>
   </g>
  </g>
 </g>
 <defs>
  <clipPath id="pc0cd5e9ea9">
   <rect x="69.725" y="9.546325" width="381.926458" height="161.696408"/>
  </clipPath>
  <clipPath id="p5d719bc40f">
   <rect x="69.725" y="188.158121" width="381.926458" height="161.696408"/>
  </clipPath>
  <clipPath id="pe6ac11b651">
   <rect x="69.725" y="366.769917" width="381.926458" height="161.696408"/>
  </clipPath>
 </defs>
</svg>
